<mxfile host="app.diagrams.net" modified="2020-12-18T16:20:15.945Z" agent="5.0 (Macintosh; Intel Mac OS X 10_15_7) AppleWebKit/537.36 (KHTML, like Gecko) Chrome/87.0.4280.88 Safari/537.36" etag="sJ43CXWXigMzKSDyNaUx" version="13.6.5" type="github">
  <diagram id="Pn3Dy7QhvAJrtqYIVvAM" name="Page-1">
    <mxGraphModel dx="1706" dy="438" grid="1" gridSize="10" guides="1" tooltips="1" connect="1" arrows="1" fold="1" page="1" pageScale="1" pageWidth="827" pageHeight="1169" math="0" shadow="0">
      <root>
        <mxCell id="0" />
        <mxCell id="1" parent="0" />
        <mxCell id="ceImJN7lgpzEA01INMW1-1" value="" style="rounded=0;whiteSpace=wrap;html=1;fillColor=#D5E8D4;" parent="1" vertex="1">
          <mxGeometry x="160" y="160" width="480" height="210" as="geometry" />
        </mxCell>
        <mxCell id="kj3QrBDqhi7sIl1en-mR-6" style="edgeStyle=orthogonalEdgeStyle;rounded=0;orthogonalLoop=1;jettySize=auto;html=1;entryX=0.5;entryY=0;entryDx=0;entryDy=0;exitX=0.121;exitY=0.997;exitDx=0;exitDy=0;exitPerimeter=0;" edge="1" parent="1" source="kj3QrBDqhi7sIl1en-mR-1" target="ceImJN7lgpzEA01INMW1-10">
          <mxGeometry relative="1" as="geometry">
            <Array as="points">
              <mxPoint x="245" y="240" />
            </Array>
          </mxGeometry>
        </mxCell>
        <mxCell id="kj3QrBDqhi7sIl1en-mR-1" value="" style="rounded=0;whiteSpace=wrap;html=1;" vertex="1" parent="1">
          <mxGeometry x="190" y="170" width="400" height="70" as="geometry" />
        </mxCell>
        <mxCell id="ceImJN7lgpzEA01INMW1-4" value="" style="shape=image;verticalLabelPosition=bottom;labelBackgroundColor=#ffffff;verticalAlign=top;aspect=fixed;imageAspect=0;image=data:image/png,iVBORw0KGgoAAAANSUhEUgAAA2QAAAFKCAYAAABy0ZynAAAgAElEQVR4Aeyd97dURdb+v3/LrHlnXKaFAZYBdamYMCwxYwAVTJgjZjFiVhwMr4g5oI4BfRXRMWBW5MWsYwYD6oijzLic3853fQ7vc9hdfbr7VJ3ue/veu3/oVafPqbjrqfDUrtr1//681h8y/7kMHAOOAceAY8Ax4BhwDDgGHAOOAcfAwGPg/7nQB17oLnOXuWNgaGBgrbX/mI3ZZMNsp/Hjsj332jVbf9RavoDli3iOAceAY8Ax4BhwDHQVA07IHFBdBZQTjaFBNLyeOtfTrFlXZD/++HX2n/+sKn4nn3KctxfvMx0DjgHHgGPAMeAY6CoGBpyQnXLq8dnyrz9r+t1519yuFmyoTTg33Gi9bPSYDYLfqL6TSWz9oVFoLldYzvD/mnIvXvxK9t77S7I5c2b3nSx6jbFtx22Rl53yn3ji0W3Lv+56f84mTNg5o36mHX1Ytseeu2a863UeO8U/VOvvuOOPKkiYJWRHH3P4oMu0k8z9e2ey7TJyGTkGHAOOAcdAP2FgwAnZzJnnl050nnnmiRE90Vm16qdSufz73yuzTz/9IJs3785sy602G3QZxdbf355dUFouO8kte95+h23ysurb888vHPSyD3TD3Wvv3QrZXXXVzNLyb7Hlptmrr76Q/fbbz4Vfyeynn77NZs++pjTcQJVFeRlq9Td//gOFPO+6a2621dab+3ZFXw0d1LY0UG3W0/FJqmPAMeAYGHgMDDghg1Sw2s9v+uknFZOekU7Ifv/9l0IWmsSG7r/+tTI77PCDB3VSEFt/ixY93bFcYTn5P378dnk59W2oTei70Zl1ImQT998r+/775W3l+9lnHwwqXoZq/b355suFXDfYcN1BlWE3sORxDPzg6jJ3mTsGHAOOAcdAVQwMOCGzGVt7nf8qJj1OyNYQsvNmnJnxu/KqS7LHH384+/33Xws5/fDD17mRASvHwXquUn9TD5ucXXbZhQ2/Rx6ZV5Tnm2++aPiG30svvSAbtcE6TsjaaMhGjxmV/fLLD4Ucv/rqk+zc887I9tl3QnbolIOym2+ena1atTJzQpY2GHz88Tu5bP/5z++djLlmzDHgGHAMOAYcA46BnmKg64SMSXpVglBlQt8qLqyftfrW6X3q2ZrUcJ3yw3dpyJhEh/6ZZNstaZwTCv0Mxv/U+qM80px0IuLyF2rIYnBWJpuY8Ous+6doeafi06bVTkP2l79cXcgQ8rD52NFNeWSb3UknH9v03sojNZ+Ko5Mcu1l/VjZKv1euCBlGPXqVhsebRpZdbi43x4BjwDHgGBhuGOgKITv1tBOypxY+ln3+xUe5NgdS8dFHb2fX33Bt23NPMRP6HXfaNuMczRtvvJStWPFVPhllC9877yzOHnzwnmzX3XZsOXFC23LFlRdnH3ywNGPFm0kiZ7bQHnA2C2MIZRWbGq4srk7v2hEywpJPTW5vuum6hvwix2uuvTx7/fVF2c8/r8i3sX3yyfvZ/PkPFlv/ytJPDae4YupPYXBTCdne++yePfzwvAytGrL4/PMPszm3XJ+RDxu/nnn/5JOPZpC+Cy86L9t0s41zHLz+xos5AQYDS5a8lk2bNrUpPO8WLJifoXkiLTSTL7ywMDv2uCOb/JJeHXxyDuyhh+fl7Ye0vvzy79m8eXfl+VKd2zNkGIChnvUNjZjK3Mmtk0/FHdPelUcIdWz9kV5sPSiPdV0nZD7Y18WQh3cMOQYcA44Bx0BVDNQiZJtsulE+SdWkq8x99rmnWk4WYyb0kI2y+PUOEnj6GSc3pbXe+mvllurkr8x94olHuhauquBDf50IGRNy5Z0tfwoPyVjyv68V3+RHLqSjTEuSGk7p4sbUnw2XQsjYnicyrbLJhXTZ+PW8/qi1C7lwlm3p0jeK/wqLixXDNWHWyh544O5Sfwpz7723Ff4VLhWfu+2+U7HAoPjLXEvIDjxo3yJ/3377RRaj5UrNJ+VMae8qS2z9YZ0zpR5UH3Vc5Lly5Xe5jF1D5oNpHSx5WMePY8Ax4BhwDFTBQC1C9vTT/1NMDDnnBLG55prL8vMrmvx2m5AtX/5pri267PKL8rNHL738bJEHJn/jxm3ZMFm+6OIZxXeszmE9jTNK3DH04kurw6IJCYWVGi6Mp+r/ToTssccfKsphLeehSdGkF1J6zz23ZvfNuyN77723zPufcu2QzUtqOBvHQBIylRFjCzfcOCsLjYXIKqPNnyVkCo+LKXY0UosWPZNryiwhI275BdOPPnp/rlW7//67i22lfA/N0IvoxOLz3XcXF+ktW/ZJhvaTKyBCq5uWkJ122glFGMphy9zpOTWfxJvS3iVLuVXrL7UeOpW/yne7VRRNc5Uw7scHXMeAY8Ax4BhwDDgGUjGQTMgOOfTAYlKI5mLS5IlNE5czzzo1u/rqS5veK7MxE3ouZD3yqCml2oDbb7+5yAtES/Hjzn/sr8W3c86Z3vCN7zvsuE3pdsfUcDbtmOd2hOzEk44pysDE9oQTpuXl2HqbscXZMs6Y7bffnkX50Axasjp37o3Ft9RwYXli6s+GTdGQUW5IkY2HBQBN9M86+9SGb/gLCRnbDkOcUv8iV9tsOzZjGyxxIs9JkxoxfcSRhxbphZqpFHwefMgBRXwQOXsO7IAD92kw5mIJGRhXucPtq1Y+Zc8p+SSe1PaufOJWrb869VBW5ph3aOZs21/wVPNiTUx87tcHZ8eAY8Ax4BhwDDgGOmEgmZBZS3nXXXdV02S4U8J8T53Qh3FzLkYTv1Bj8NzzTxXfRGTC8GX/U8OVxVXlnQgZ5eBcFD/Ojb399ptF/vnGmSZZIJw+/cTiW5mWzxKfj//+blFHqeHCcqTWn81XVaMe3MfGNkubB0sSZl13ZcM3/IWEjAUCGz58tttCOf8Yfuf/hx++XcgcMlfmJ3zXCp+QZOEWjW8YjnNX+m4JGcRG7y++ZEZTuDCeqv9b5ZPwqe1d+Yypv17VQys5cJUDZ1PRlP7664+FbCHd43fevmvybZW+v/eB2jHgGHAMOAYcAyMbA8mETFsSmXDZlf0YQMVO6MduMSa/6BYDIhjzwPgBPxn5IC/hebC5c28qJlho8m6/Y06GpiOc3If5Tg0XxlP1vyVkmsSGLhoeyIzitJqSsnNi+OMMDPGwBa5uOIWXG1t/CpdCyLgcW+HlWgKBmXe9l2sJGXVPfvWtzIXMW5mTZviz39HY2nhi8QmJVnxlE380uvpuCZndbnrJzHhCFptPypja3pX/mPqrWw+2Tqo877HnroWclV/OvO03ca+G+q0Sl/sZ2QOq17/Xv2PAMeAYcAykYCCZkMnAQpmZ9qoZiZnQn3Pu6Rmr7JowtXI582PTZ3ue8hqGeeutV7PJB+/f4F9hU8MpfKxrCRmr9PyYFDKRRVPC1k9pxhQ31iVVJgw96L11WfWXnzGbbJj7SQ1n4+U5pv5s2BRCxvZLGwfP1JHKdtddc5u+W0Jmz4mF8eh/O+MoSse6aBoVNgWfVvupulF8uIcfcUhRPkvIsKipfJQRURtH+JyST+JQG4pt78pnTP3VqYewvFX+Y7Vy5szz88UeLHAqz7jco1clDvfjA7BjwDHgGHAMOAYcA6kYSCZkuhcL89upiVed0E/YY5firBSTJMzXs00SDQIGDphMaRKF9izMDxN3tlzJcpr8yg1JnMKnhlP4GFeELGbCi1l7lcGeH7PpWs0GmhG+pYaz8fJctf7CcCmELLyHjDhjCFmnrZHEB64kT4zTTD/9pLa/sVtsksszFZ82vY1Hj2rCLebslR9LyDA7r/fW4mYo5/B/aj6JJ7W9K58x9WflElMPYXlT/9973+2FfMuIZGq8Hs4HaseAY8Ax4BhwDDgGyjCQTMg4k6TJ1gYbrts0mSxLLHxnJ/RlEzb5h3wprdtuu7kprd0njC++lxEyxUN63Fc2+/pri7usFG+780Cp4ZRuFTeFkKEdUf65r6ksHYxF4If4KQd+UsOF8VetvzDcYBCydrhQ/uwWQsiL3ndyU/H5t2cXFPUXWgclTUu8LCHD4Ifq/fvvlxf12qt8Em9qe1c+y9p3K0KdWg+dyl/1O1cRKN+c2awazv35IOsYcAw4BhwDjgHHQAoGkgkZE1xNWrDclpI4YbQNccWKZS3jsGlxbihMy5qorzLxJjxkgouhVYbwPFCYhv6nhlP4Vm4KITtvxplF/q0VRaWBsQJMt1NGTKrrfWo4hbdulfqz/nnuV0KGIQ/hYcaMswp5hfkP/6fiE/P2Sg9LmmG8VlNjCRlbV7nCQWGrYjc1n+TLho1p78pjDCFLrYdQfnX+Y9CDvPs9ZD6w1sGRh3X8OAYcA44Bx0AVDCQTsgsuOKeYEH7+xUfZ6DHNW6622HLTbP8D9m6aaNqMcUZKk7bx47cr9WvNUIfmzUkXLYHiCAkZq/Dh2Sulv3Tp60U4LPbpPW5qOBtHzHMKIdt33z2K/DNBD7e93TL3huK7lUtquLLyVKm/MFy/EjJrhh5DMWWYpiwYsdlzr10LvKTi01q7xMqfveCZM2U6twW2LSEjD9fOWnOODC3OtuO2KPIjeWMoZMb5a4hlaj6JL7W9q13GELLUelC5u+F+/PE7edtxQuYDaTfw5HE4jhwDjgHHgGOgHQaSCdk66/4pNzihCdc333yRb7FiSyDWya648uJ8QtnuYmgyZrUATEAhEaefcXL+k6GDK6+6pCAWy5Z9ml144bkZ2xSPOfaIjP/KA64lHsS/ZMlreT64MHnKlEkZGjbIl727jHCh1cXUcO2E3e5bCiEjPi7aVfmZRFLGvffZPTebr/e4lkDUCReWoUr9hWH6lZCRT/AquaG1ZQGALWz8jj9+Wvbkk4/m2z+50FnlSsXnuuv9ucFCKHHTdsCnCIHyEhKyjTZeP+P8pr5DIDH8ghEKtG1cmQCm0ALXzSfhU9u78hdDyFLrQeXshiv50yd1Iz6Pwwdix4BjwDHgGHAMOAZaYSCZkBEhmpZ//OObYlKoyZd1OxEytGh2YmnDTjv6sHwyBDGzWjDrh2cMYehdGSHTt1Yud36FAoKQtfKv92Xhwniq/k8lZJAbrDEqT2VumeGH1HBhearUXximnwkZmtHPP/+wrTyRsSVkdfCJURptKy2rO70LCRky5Zzb8q8/a5tXS8jq5JP0Utq78h9LyFLqIcRZnf+LF79SyLWVhr1O/B7WB2XHgGPAMeAYcAw4BoSBWoSMSDbZdKOMQ/g6S6QJGO5HH72dHX3M4U1kR4nLZfJFHOHk0m4jREPBJNjGzzPmzNHKcc8W/0PygfbCbquz4SF5WGi0W8WUp9RwCh/rygIkd43Fht1+h23ye9ls2XiGqLW7ODg1XJi/KvVnw+yy645FPbKNzn4Ln7VtD+1R+I2tgyKyc+Y030OGBqoVLsK47P/1R62Va1DtJcGSLem9+NKzuRbKhknFJ3FgkMWeCSMttHMXXnReISe0wjY9PUOyWIRYuXKNtkx5xaBLWP918kmase29Tv2l1IPkUte1lki5kxANelk/UTcdD++DsWPAMeAYcAw4BhwDtQmZQISxCyb4U6dOzrgTa6utNy+dQMp/qstZGYgalua4P6hqPEyouACWLV2TJk/Mxm23Vb4Nq1P41HCd4u3Fd7axYf6ebYtlZ4papZkarlV8w+k9OOZME5jjjGMnbUkqPpEZ7eewww/O2ln8bCdb0qb90TY61X+dfJKHgWrvKm9sPShcqstF6yK21m1lzTQ1HQ/ng7BjwDHgGHAMOAYcA10jZA4mB5NjwDEwnDDA9RDhduoYC5PDSRZeFm/bjgHHgGPAMeAY6B0GnJCt1TvhOnBdto6BoY0Btr2inUO7juY/9c5Fx8HQxoHXn9efY8Ax4BhwDPQSA07InJBV3vbZSyB63N7ROQYcA44Bx4BjwDHgGHAMjEQMOCFzQuaEzDHgGHAMOAYcA44Bx4BjwDHgGBgkDDghGyTBj0T272X2VS/HgGPAMeAYcAw4BhwDjgHHQCMGnJA5IfPVEMfAiMXAww/Py1J+PpA0DiQuD5eHY8Ax4BhwDDgG0jHghMwn4yN2Mu4dR3rHMVxkl0LGCDNcyu/l8DbgGHAMOAYcA46BwceAEzInZD65dAw4BhwDjgHHgGPAMeAYcAw4BgYJA07IBknwvhox+KsRXgdeB44Bx4BjwDHgGHAMOAYcA4ONgWhCtv0OW2f8Bjvjnr43HsfA4GHgoYfnZf/5z6qG3zvvLC7tF95446UGf4R74olHSv16nQ5enbrsXfaOAceAY8Ax4BgYHAxEE7KRUlEbbrReNnrMBsFvVN9NIk859fhs+defNf3uvGtu5byuP2qthnKOlDruVjnXWvuP2VtvvZq99/6S7Pobrq0s926lPxjxLFgwv4lkffrpB6Vlf++9t5r8Pvf8U6V+B6MspLl48St5/c2ZM7uv8tULeXh7H5zBthd16XF6XToGHAOOgeGBgWhCNlI0ZKtW/dQ0iWRl/9//Xpkx8Zw3785sy602G/TJ28yZ55fm85lnnqicN7QVVtvRD+UaSh3Muuv9uZDfwoWPV5Z7N8rIwsGMGWflv+132GbA0raEbOrUydnE/ffKdtxp29L0d9hxm/z7QQftV8ip3wiZ8P/88wtLy9CNuuqXOLy9D4/Bu1/w5PlwPDkGHAOOgfoYiCZkI0Xov//+SzF51GQtdP/1r5XZYYcfPKgTOMjTiScenf+mn35SkeeqhAwy8csvPxThKCMT/JFSz90o52ASsn333aOou8suu3DA6s0SMjQuVeSIJlFtyAlZ/c67isxDP97eB0fuYT34f68Hx4BjwDHgGLAYiCZkI0VDZgnZeTPOzPhdedUl2eOPP5z9/vuvxcTyhx++zsZssmGlCakVfC+e117nv4p8VSVkhxx6YBFGk+UXX3q2L8rTCxn1Ik4nZE7IeoGrXsTp7d0nAL3AlcfpuHIMOAYcA/UwEE3IRorARchWrVrZRE722XdC9ttvPxdEhnNc/SCXFELGWTMRMbmUja1wKWUiD1XDrbPunyr7DeOMSYewaGfCOLr1vxUh62Wayns3NGQp9TBSNGSxOKNeUuRZBysxYb291xsw1e7cdTk6BhwDjgHHQDcxEE3IRpqGrIyQUQGcIROBuemm6xom+0zirrn28uz11xdlP/+8Ivv+++XZJ5+8n82f/2A2fvx2DX5tZaaGUxyEV56qasi+/faLPMw///l9NueW64vwxx1/VNt8PvnkoxlpXHjRedmmm22cXXHlxdnrb7yYQWQ5f7dkyWvZtGlTm+LgHZP5r776JE8LDeMLLyzMjj3uyCa/lOuxxx/K02E73t777J5xKe8336zO8+eff5jnuWzSzHmmq66amWHhb8WKr/K02GKKJcAHH7wn23W3HUvTkyxbuUy2px19WLZo0TPZvffelscRErJTTzshe+nlZ3M5/Prrj9mrr76QnXX2qU3pgQdkOH/+A03flP42247N/eBPWxIpF//5ffDB0qLOkIvey91zr11L446tB+VHbq8I2c677JB9/sVH2azrrhzQM5pqN5whi8GZ5BErzxR8gj3kTt2ef/7Z2elnnJxjC1zTfsFcp8Uhb+/lE4ittxmbcf5TP6yIqm7dLZeZy8Xl4hhwDDgGuoeBaEI2UoTfTkOGDJgUaxL3yCNrBm/IyZL/fa34Jj9yISsnnXxs02CfGs7WRywh233C+CKfTy18LDe8oHy2Iwnrj1q7CLdo0dPZ0qVvFP8VHherg8of54weeODuUn8KI4KjMLj6xjk3Jp36b13IoQ3DM2TY+gmfIdpMaMNwrf6P226rDOINuVZcMuBhCZm+lbn33HNrQ3rIR/72m7hXwzflA2IiPzffvNoC4MsvP1e807dW7smnHNcQb2o9KD9ye0XIkIPKwtZgCNJRR03Nyki38tINV2nG4ixVnin4RGutfLZzhZNQLt7eW7d3jNJYmWK8KZSf/+/exMNl6bJ0DDgGHAONGIgmZK4hWy1ANDcawGfPvqYYvOfNu6t4z6SfSfh98+7IrOlvSBkEzIIxNZyNI5aQzZp1RZFXNDiswIv0rFy5ouUk2BIyyQAX0+GsLKM9gtBaQnbDjbOKtJhoP/ro/blW7f777879Kh4MlNgy6b3cN998OSMuiKDe4YYWBjXhXb7801ybednlF+UaJrQINty4cVs2pGfThmidcMK0XAthw+j53vtuz8OWETLyed11V2ULnmo0D88ZHqVx7nlnFHmBrOq9dZctW61JJE2sFfKNPM2+/tr8BylUft5++83ivb5vt33jnYGp9WDzxHOvCBmaS7SKKpPcFSuW5fW+7bgtSuUU5i/2v9KRWxVnqfJMwWcZIUMrDc4sDigD26pDGXh7X5W1au9OyBonBiF2/L/LxzHgGHAM9BYD0YRspFRIOw3ZiScd0zBhZIKMXNj2orNluPvtt2cxKVpv/bXyLUWa8M2de2PxLTVcWBexhMxudyMPxGcndpgpD9Pgf0jI2HY4afLEBr+QB5Ertt2xrYqyI5dJkxr9HnHkoYU82VJlz8RIXriQN5sfa7473BKIZujIo6Y0xKWwt99+c5Eek1S9l7vT+HHZ3Lk3Zf/4xzeFP+UDYsBdVXbraUjIkKHV6EDYFZ6JuNJhgq3rFSAhozZYp/iGnwMO3KcIB0FQOOvGnCGrUw82TZ57RciIGzmcdtoJLbWcaAjZUovcw3yl/lf9xOCsjjxT8BkSMjTDtq2AS5UDDIay8Pa+Kitr78jJCVlvJxohFv2/y9sx4BhwDDRiIJqQjTQNGRMczlbx49wYWghNenA5C6WJ9PTpJxbfmLCGYGPVWmE//vu7xffUcGH8MYQMc/nKi73Q95xzphfvb731v4s82rRCQnbmWc3no6x/u72z1cXJH374dpGuNEHEoTyyhSjUKlqLcWzts2m2e+b8juLVWREm95z9Qsunb3IhkdTn1MMmNxAtpRESsl12bTyfBj7s1QLIT2FJX+lAQvQel7Nurb7JXwwhq1MPSk9uLwmZ0sBFI0bdLlv2aSELyeTHH7/Obpl7Q8Z2Uhsm5VlxxuCsm/K0eS7DJ99DQoY/G26jjddvWPiwZM3b+6ocP2rvVm48274ZLLBAEvrx/42TB5eHy8Mx4BhwDHQPA9GEbKQIXxoyTdTKXDRDdmuQ3RJUdk4M2TGJJC40I5JlajiFlxtDyDDjrzJZ4sWqv96zXU5xW9cSMrY4Wm2Q9adnSzqIGwIY/pQmLpothdV7Sxr1zU5cy87NjN1iTIZ2ivNxGPP48su/5z8Z+SButGzEZ88uKU22mc44/6xs9JgNivwobetaQoZhDftNz397dkEhV7u9Ei2q0mP7mfxbEoeMLYmTH9wYQlanHmyaPA8UIbPporHFqIu0ipJbmTbIhqvyrLhicFZXnjH4pAyWkIHlsnLZLbmbjx1d+PH2vpqQqb2XyW6zzUdnyIzfxqNHFbIr8+vvujcJcVm6LB0DjgHHwB+yaEI2EjVkrJbyQ8vBhA1DA1dffWmhGROQrEbjwIP2LR3QrSEH3V+WGk7pyo0hZNw1pkno8cdPyyf8TPr5fffdl8U3rN4pfrmWkNlzYvoeuu2MnCgP1kVjqDj0nomm3sllm6W+33XX3Ibv55x7eoa2Q99buZxlI74yQnbBBedUumPOEjLKqvxZl+2WykO4vRNM6ZvOSGEtT+90Vs3Gp+cYQlanHpSe3MEgZGh8kB2XSks2uN0kZDE4qyPPWHwid0vILHlXneBijEey2WPPNRY2vb2vJmRq71Zm/uyTQceAY8Ax4BgYbAxEE7LBzvBApS8NWSuz92X5wIy5JkP2/Jj1ay0SskLOt9RwNl6eqxIyJnY666b8tnLZlhWmYwkZJrjD7+F/e3blmmsuy6afflLb39gtNiniVL4gwWG8rQjZhD12aSgf6WP4gO2YbAucOfP8op7QnhHvFltumhsjUXpykRMTfrR2re6XsoQMM/thPvnPheKK0xr24NvFl8wovv3lL1fn4TGVL/+tTNcTNoaQ1amHsEwDScjQKGKkZPnXnxUykWzQSHbaMhvmvey/4ovBWao8U/BJni0h4xxdWTlojyqLLHd6e29u72Wy83c+IXMMOAYcA46BwcJANCEbaRqyGELGtjlNhsru4KKSsfqHHwiftvqlhgtBYwlZ2cRS/rnzS/ns5EIgFU6uJWQiNPpW5trJO5PRMj+t3il/ZeVpRcggXwp32203N6UXmv+2aRMn2xytllBxsd2U+Ahvw1hCVrblDb/WAMn4nbdvCI+mVNo8SAdaMqX50UdvN/i16fIcQ8jq1EOYro0L0+/h97L/aLhULrRcZX70jvNQZ599Wn6fncLIpe08/fT/5Gf67DkphU1xFXcMzqwMYnCdik9LyDhzWVZOS8hkUdDbe+P1HmVy83c+CXMMOAYcA46BwcRANCEbzMwOZNopGjJ7TsNaUVS+OViPyXcmf/Z8Vmo4xWtdTeyxBmjf22e7rYntkphfD39s0dQk1Z5FIZ5YQoYhD8U1Y8ZZLfNl86hnhYuZKEMSFS40fEC8F128RiPVilBCbg8/4pDs2eeeKupMceJClGRF0hIycLPJphs1lVFEnLBl51MsYbNa1AsvPLcpLskG1xojsNcvWD96rlMPikOuJSPdJGRgjSslZJXTypw2w1ZhaZaVl264SicGZ6nyTMWnJWS089FjGs85QU7t+UgsuyIbb++d2zuypd1xbpQfxptYFOgGtjwOn+Q5BhwDjgHHQCcMRBMy15C1BpXVVvz007dNE28swmniZ4lAariyyrXnkaxpdvmFaHDHmPKBEQ99s65daQ9NyscSsoMPOaBIjwljOJFUukzGw+15ymfMRHn+Y38t0gvzTtr2cmdbD8pH6LKd8ZprLy+0m8qTzi5ZQsa3a2dd3iBTiJ3CfP75hw3flNbkg/cv/Mjv6kl3e4MiVpvG/W+Kr8ytUw9hfL0iZOFZPlm4JO9hHrr5X3vcTAQAACAASURBVDKPwVmqPFPxaQkZ+b3iyosbZHLMsUcUGPr443fyb97eq7V3+h5hQC7tvpsY87haj50uG5eNY8AxMNIxEE3IRorAUjRkyIb7ojSgMymaMmVStvc+u+dm8/UeNyQeqeHC+sAAhNLBOh8k8PQzTs5/bI3D2Ii+tyIHxInRAflDS2TTiSVkhCUOxYf2DqK02+475T+MinCnEjJ/993FDWkpTMxE+cqrLinSwlw6Wia2GTJhDc2nVyFkKjsaiEOnHJRbbSSvrQgZeeasHHWMgRJdts37kCAqblx7CTR+21mEUzjIoNUmofFEczd16uT8F2rjUutB6cntNSEDm5deekGptlF56KabgjPST5FnKj5DQoa2HVIGzs4485SGC7V1hYK398brElq1dydkPhnsZn/icTmeHAOOgVgMRBMy15C1BxlbyOydU5roWfeRR+Y1kA4qLTVcWOGs6v788xoNmE132tGH5Rce6x0XJIfh9d9qXpjw6641vqcQMs5mMclW2q3cbhAyiKfVgoVpcS5Q71pN0CSHVi4msmURMdSQKe7QZSsUflvFyXY8GwYy38qvfX/TTdc1hLNxcAGx9ZtaDzYOnntFyDCcEnMeK8xX6n/JLIb4k1aKPFPxGRIy5Tl0ueIBzRj544Jzfff2vipfTCnDiL1CQ/KyxoXKwvi79mOhy8fl4xhwDDgGqmMgmpCNFOGuXPldPpHhrrHYMmMVjkmRBna5EDUs6rWKLzVcGB+TRCbMoVU6rPuxrU35QYsShrX/P/tsjTl2a4gCUqG7oMrIpY3DPnPWiEmhPZ+mvKBxwjT3iScd05AnaZfQoNm4eGZVW5rMOXNmN3xH+wa5U/xyMdO/6247JuU/TF//mfyqTAuemv9/2r7VZwVJF00GxM+SWoW1rr2TDKMiVQ1WkD4azSVLXsvQPqqsuGXGZVLqweaTZ0vIjjjy0FzzajFi/TPZRVNjt/h1Muphww/EcyrOyFuKPFPwaQkZ8mNbsc6kCmdoVe2ZPm/v1dq73RGALFtdXzEQWPQ0qk9gXFYuK8eAY2C4YCCakI0UDVk3KphD4Uyy0XRIm1Il3tRwVeLuFz9bbb15PkGHJHLWrRNZSc03cieNAw7cJzcbnhpPbDgmz5MmTcz2P2DvbIMN120gi63iwuS9yBQGI1r56+b71HqwhEx5bmVhEs2g/MjtN0LWLZnGyjMGn5aQaTtrjrPJE7OJ++/VszbUDdnEyiU1zRh52jRY8BE2cTnTab/7s0/6HAOOAceAY6CXGIgmZL3MjMftYB+pGGAbG4ZgNCmMIfCDITPOqqGdtL+yKxLI2+uvL2rwRxgsKQ5GvodymmWEbCiXp5/ybtseeO2nvHlefFx0DDgGHAPDHwPRhMw1ZMMfFN7wB6aO2Wp46mknZGjD7PbSvz27wCeEaw1MHQwlrDsh6w0mdho/rlgIYUFEF2oPJWx4XnuDDZery9Ux4BgYKAxEE7KBypin441guGOAe+mkEZPLtQC60He4l9/LF9fGnZDFyasqvlgY4awlv07naqvG6f56U1cuV5erY8AxMFwxEE3IXEPmjWG4NoaBLtemm22cm6xnC9+3336RX+C7w47buHbMtWOlGMBYB8ZjwMv9999d6megMezp+XjgGHAMOAYcA46B+hiIJmQu9PpCdxm6DB0DjgHHgGPAMeAYcAw4BhwDjgEwEE3IXEPmwPHOwzHgGHAMOAYcA44Bx4BjwDHgGOgOBqIJmQu+O4J3ObocHQOOAceAY8Ax4BhwDDgGHAOOgWhC5hoyB413HI4Bx4BjwDHgGHAMOAYcA44Bx0B3MBBNyFzw3RG8y9Hl6BhwDDgGHAOOAceAY8Ax4BhwDEQTMteQOWi843AMOAYcA44Bx4BjwDHgGHAMOAa6g4FoQjZSBM+dP6PHbBD8RvWdqelTTj0+v1SYi4Xt78675lbOK+a0bVlHSh13s5xWfnoGQ91MYzDjUpmsO9DlO/2Mk7PHHn8oW7r09ey995fkv7lzb+oo49RwgynvgUx723FbFPI88cSj28qTu/Nee21R/jvm2CPa+h3IMgxmWt5/dmcyMph16Gl7HToGHAODjYFoQjZSNGSrVv3UdGkvl/f++98rs08//SCbN+/OjMnJYFfgzJnnl+bzmWeeqJy3J554pCGOfijXYMs1Jv3DjzikQX665Bn3l19+yCe7F1xwTrbe+mtVrpOq6UOKZsw4K/9tv0Nv7jAbzPJJDvMf+2upjF986dm2Mk0Np3RHgrvX3rsVsr3qqplt5Tlhj10Kv9dce3lbv0NJdnXakfefPpEbSlj3vDpeHQP9iYFoQjZSKpLLV+3Euuz5X/9amR12+MGDOimBPLGqzW/66ScVea5KyNZd7885abDlY4I/Uuq5G+WcdvRhhdytHMPnDz98O2M1vRtpKo59992jSPuyyy7satxKYzDLRx523W3Hooy///5rtnjxK9mcObOzG2+alZ1wwrSWZU4Np3KPFNcJ2R+y1Hbk/Wd/TmxGStv1cjr+HAPDBwPRhGykaMgsITtvxpkZvyuvuiR7/PGHMyaFmmz/8MPX2ZhNNmw5KRzIxrL2Ov9V5KsqITvk0AOLMCpTJ63DQJZpKKRlCcsHHyzNsQKpRYPw1MLHMoul2267uatYSZ1Ixsh1MMtHPtmWK2xCxKrmPTVc1fiHi78YQrbx6FHZX/5ydf7bc69dK9dFv8sqtR15/zl8JkP9jlHPn2PNMTC8MRBNyEYKIDSJXrVqZdOkY599J2S//fZzMUlk4tcPckkhZJw102RXLmVLPR9EHqrKYp11/1TZbxhnTDqEXWvtPyanFaYd/reE5d57b2tKZ/b11xYy/vjjd5q+h/HF/E+dSNo0OtXDYJaPfF5x5cWF/A6dclBl+aWGk2w6yUX+2rmxOG0XVze/2bLFELJu5SFGLjavselXTSe1HXn/ObwnSLF4c/+OB8eAYyAVA9GEbKRpyMoIGcLmDJkIzE03XdcwSWQSgHbk9dcXZT//vCL7/vvl2SefvJ/Nn/9gNn78dg1+bcWlhlMchFeeqmrIvv32izzMP//5fTbnluuL8Mcdf1TbfD755KMZaVx40XnZppttnE+aX3/jxVwbxPm7JUtey6ZNm9oUB+8WLJifffXVJ3laaBhfeGFhduxxRzb5pVwYcSAdtuPtvc/u2cMPz8u++WZ1nj///MM8z2WTrh132jbjPMwbb7yUrVjxVZ4WW0zfeWdx9uCD9+Tb4CS3GJfJIQRl0aJnMpGvToQFTYLqBe2q0gMPlG3+/AeKd/omd5ttx+Z+JAPeUy7+80Mjp7iRi97LbaXFiKmH1PKRV+qL+r7o4hlNZYT0o3Hm+0knH9vwXfVOOYRRykl5VTZctNaSFW5qOMURIxeFAX9V28POu+yQff7FR9ms664c8DOoW2y5afbQw/Py9JHll1/+PZs37668nQpDZWfIMN4BVsMf2iHJoMyNkUsYPqUeFMepp52Qa6aRM+2NPvyjj97Orr/h2gaZd6MdCZvefzZOwrbeZmy2cOHjxQ/cqX7cbZSVy8Pl4RhwDICBaEI2UoDTTkOGDBjMNYl55JE1gw3kZMn/vlZ8kx+5kJVw8kl8qeFsfcQSst0njC/yyda6ifvvVfxvRxLWH7V24W/RoqezpUvfKP6rnLhYwlP+ODv1wAN3l/pTGBEchcHVN4xjMOnRf+syGbZheIYMWz/hM5M0rO+F4Vr9H7fdVhnEG3KtuJhw4L8TYbn66kuLMGBDaSAfxbXfxL2K9/qOy8Rdfm6+efV2vZdffq54p2+t3JNPOa4h3pR6SC0f+Ve+nn9+YUM++MakTd/vCqyC6n0nN9xe28m/vofhUuSieoppD9Sz8gBZQC5HHTU1K1tUUPzdcHfbfadiYULpl7llhIxttmV+Oxn1iJGLylinHjbZdKN8cacsr3r37HNPFTis047Ir/efrftPO5Yge4xhqY7d9cmnY8Ax4BhoxkA0IXMN2WohshKvQX727GuKwYYVZ71n0n/PPbdm9827I3vvvbfM+59yAmYBmRrOxhFLyGbNuqLI01lnn5qh/RHpWblyRctJop1oqay4GFtgJRTtEYTWErIbbpxVpMVE9NFH78+1avfff3fDGavQ7LaNn+c333w5Iy6IoP0WWhgUIVu+/NNcm3nZ5RflWraXXn62Idy4cVsWdWdlyTMH9jEa8eqrLzSEUbr33nd7HtYSlrfeejWfYLPCj0wpn93ees4504v0zj3vjCJeyGqYPv+XLVutSSTNHXZcbUWRPLENkh+kUPl5++03i/f6vt32WzfEm1IPqeUj/8pbLCGDGKgM7767uIhnwVPzi/d8P/74RqMeqeFS5KL6imkPGBr59dcfi/JIPitWLMtxjQl6xdtN18oQTLG4wHa70JpsGSFDEwYp4/fc808VeY8hZConbi/6CWT19NP/U+SNPgbrh9dcc1nGQoYWjSwhq9OOSM/7z1VZq/7TCVnzZKub7dnjcvk6BoYfBqIJ2UgBQTsN2YknHVMM/EwwZOmNFX9NvnH322/PYnKFyXNLBubOvbH4lhourItYQma3u5EH4rMT/IMO2q/Io00rnICy7XDS5IkNfiEPIldsu2O7ILJCLpMmNfo94shDC3myBcie97ITOciNzYc1Nw35sd/QDB151JSGuPT99tvXrPgzqdJ7uTuNH5dxv9U//vFNkS/lg4kzhiXs1lNLWOSvzOWsoS0bW/Y0IWaSPmqDdRrycsCB+xTpQ0SVP+vGnH1JrYfU8pFPySGWkNkyQhIUD+ed7Ld2z1XDpcpFace2B+r5tNNOaKnFRXPDlmEWBJRGHffgQw4o5McCxeZjRxfxgjHIi+RbRshs2jFm72PlUqcerHENFpXC/ogynHnWqRnaalsePce0I4Xx/nNVTkolD+s6IRt+k0Vbv/7s9esY6D4GognZSNOQMVHhbBU/zo2hhdDkBZezUJpIT59+YvGNczEhYDEGorAf//3d4ntquDD+GEKGuXzlhXvVFBcaHL2/9db/Lt7rO2440WKiY7+Hz3ZizDmO8Dv/MQmvdKUJ4r3eseWFbZ02rJ2EsbXPfmv3zPkyxauzDUx+OXvC6r2+yYVEUp9TD5tcqjWsSlgoo4iv8kf6SodJut7jctat1Tf5i5lIptZDnfIp//1MyFLlojqIbQ8Kh4tGDOwuW/ZpUdeS2Y8/fp3dMveGjO2yNkzsM4s/ihNNcRieutH3XhKyXvYTbBtXGa677qqmMoZlDv/HtCPCev+5Kpe3+s9Qnnaso15YcAr9+P/uT+hcpi5Tx8DQxUA0IRsplS0NmQb5MhfNEAOPZGK3sJSdE8MfkyziQjNSN5zCy40hZJjxV5ks8WKVWu/Z2qS4rWsnoKxGk679Hj5b0kHcEMDwpzRx0WwpDr23pFHfLLHS+Sp9wx27xZiM7aScj8OYB0YM+MnIB3GjZcOvPdujNNlmOuP8s7LRYzYo8mPj17MlLH97dkHG9kl+YINzalhWVJyWiOfp7rdn8Q2jKIoTks+5OcIhY2Sub9aNmUim1kOd8qnc/UzIUuWieohtDwoXumikMYIiralkp7OKof+q/1lMUFzjd96+CUd2EaZXhKzX/YS2JFJOqwGsKqOYdkSc3n+uJmTqP8vkvNnmo/O6oD64LqHMj78bupNHrzuvO8dAdzEQTchGooaM1T1+TJAhBkwu2foizZhAaTUaBx60b+kAZA056P6y1HBKV24MIcOogSZpnMNhUqnfd999WXzDKpzil2snoPacmL6HbjsjJ8qDddEYKg69Z7un3slF26TvoVGIc849PT9Iru+tXM6yEV8ZIbvggnMq3TFnCUuZYRJwsvzrz4q8Tp06uaEsYEr50xkie4eWzqqp3NaNmUim1kOd8qlc/UzIUuWieohtDwoXumxnZaudPaeF/OoSMqvVV59j0z78iEMK/PWKkPW6n4DwIatWVnFtecueY9oR4b3/XE3I1H+WydTfdXey5vJ0eToGhjcGognZSAGENGQxAzxmoTUBtefHrMzsSi4aHL6lhrPx8lyVkHF2SWfdlN9WbtkEzU5AMT0e5iP8b89acMh++ukntf2N3WKTIk7lK2ZCzzkXWz7SZxsTmgC2Bc6ceX5RT2jPyC8mwTFGovTkEg8TYrR2re5D6kRYiB9NneLEhL+V0cWXzCi+ceku36whkVam6/EXM5FMrYc65VOZy+oP8qnvIaG28gGD8teLM2SpclEeY9uDwslFm4qBEkvaVV6uMui01U/xtHJt+co0FdztpvTK2ruNN/UMWa/7CbV3rhmx+a36HNOOvP9s7j+rytn9De8Jpdev169jIB0D0YRspGnIYggZ2+Y0scHKXhkwOVSPHwiftvqlhgvjt4SsbAIs/9z5pXx2ciGQCifXTkBFaPStzLVbppjQlflp9U75KytPKw0Z5EvhsAwXxh2aq7bfiRPyZLWEiovtpsRHeBumCmGxW5xuv2NOQ3i0FpyRIx0m5ZaocH+STSt8jplIptZDnfJJc1Gm4bT3sw0mIUuVi+oitj0QbqON18/OPvu0/L4+4UsufQMWAzmzaI3AKL1Yl220irvMKh5nJ/W9V4Ss1/0EW4FVhg02XLdtmymTX0w78v6z8bqUMnn6u/RJmcvOZecYGJkYiCZkIwUoKRoyO+m2VhQlMw6Cy6KZPZ+VGk7xWlcTe6wB2vf2mTvGNHlhuyTm18MfWzTlJzyTETsBxZCH4pox46yW+bJ51LPCxRAyJn8KxzkzxSWXS4r1vdVEEXLLVi7MZKvOFAYXoiQrklUIi9WQhReJky9rMdJqUS+88Nym/KscuPbwPGnYb+Fzaj3UKZ/OwZURS0sEBpOQpcpF8o1pD7QlrsyQ1VGLKfoEtkJLc67467qYt1c6WIgN42NLrL4PJiGrUw+2zYd374XlLfsf0468/+zcf6JFpB/jHC4/ts2yCFEme383MiefXu9e746BRgxEEzLXkDUK0ALKrrL+9NO3TQeZsZimiY8lAqnhbNp6tueRrGl2fYdocMeY8oERD32zLluM5Cc0KR8zASVOa3Ybgxqjx5Qf8GayGm7PUx5iCNn8x/7aMu+kbS93tvVgy2+f2c7InUvSbipPOtvTibCwJW3lyu+KPInI2TQmH7x/8V3xQ647GRSx2jS2XNo4w+fUeqhTvk8+eT8vFwscLEgoT2h+MLSisg4mIUuVi8oS0x7Cs4pstUNDRx4UX7dda8X1jTdeatC6oZ2VFpO6GExCVqceOO8pLH3+xUelfQzteP8D9i6Vc9V25P1ntf6Tvlz1IRf5dxvbHl/r+YjLxmXjGBhaGIgmZCOlglM0ZMiG+6I0AGFdb8qUSdne++yem83Xe9yQeKSGC+vDrnYz0YIEYumPH5MvjI0oH59//mHLARKjGPJnL1MlvZgJqPJHHIoP7R0kb7fdd8p/GBV58slH822cXGCrMLgKE0PIrrzqkiIc5sTRMrHN8Jhjj2gyL16FkCk/kAjO2xAGfJQRss8++yDf8siZIEgGF1gLS5QFy5ybbLpRQxkVPxoSlRe3nQUzhcFcv9W2oPGE8GE4hF94ZiilHiwhiy2fvUAdAgbxZOIdXuw9mIQMWabIRXUQ0x5EyGh7l156QUssKO5uuGDEWhalrZEPro2wFkDBXEjIWBCAxOhnz19CJPUel4UHm98YuShcaj1wvtMuRnH2Dg0sF3FT1iuuvDgnnsSvtKxbtR15/9l4PUOr/tMJ2dCaCNq24M9ed46BwcFANCFzDVn7imLri7Zp2cm1febOnBDwqeHCeFiF5GC7TU/PTKy58Fj/uSA5DK//dsWYCb+1KJky0eJsFpNQpd3K7QYhg3haLViYFucC9a7VhEJyaOVi0hkZ8d0SFsVb5oKLsgtrlQbb1Ww4yLy+tXPZAmnD2edw+1ZKPdQpH8ZtbH5aPQ82IUuRi+okpj1AHGLPUSqdOi7GbMq23ob1ERIy/od+Wv1/661XG/AaIxeVrU49sNOg7DJ3m99WhIz0q7Qj7z9XW7KUTFv1n/ZKEvm1xppU3+62n0+4fFw+joGRg4FoQjZSwKEtZmg0YsvMSrHdjqUBiQk5FvVaxZcaLoyPSQ2r16HVNlbErSXB0Px6GA/aEOXd3l/EarLuSiojl2E8+r/+qLUySKA9n6b40SJhSjo846LtVKzqKx65rMJK+zRnzuyG72jfIHeKXy7mt1k1T8m/0g1de0G10sFlyyHbp1555fkM65KhtiqMx5IXjIpUNejANio0mkuWvJahfbR5KDMuE1sPdcvH+USdbVTeuCQbctqq/qxs0HAqnMWh9VP2HBsuVi5KM7U9KPxAuWCBrdSSJS54ufCi84p34ZlFK0MbruyZ9mvLkiqX1HogbbTP9H0h3sgv5xiPPubwhjza/FZpR95/Vus/7Q4LZM/VElbW/jxyJple117XjoFqGIgmZCNFQ9YNAHGImUk2mg5pU6rEmxquStz94merrTfPt64x2eesm9XAdTOPyJ00Djhwn4yD5t2Mu9txYfJeE10MHHQ7/rL4BqoesHyHFpi2gAazLC/99G6g5DIYZWbh57DDD8522LFxi+Fg5KVTmqn1ALminCw6sc2QeDqlNZS+p8oltoyp/ScLaOrLcNmqHJu2+682iXM5uZwcA8MDA9GEzCt+eFS812N/1SMkxWovYgi812V/1aXXh9fHSMeA7ctef32Rk7G1vE2M9Dbh5fc20AkD0YTMNWQOqk6g8u/VMMIqPoYH0IbZ7aXcG+UyrCZDl5PLyTHQXxjYafy4Bu0YRlW8jvqrjrw+vD4cA/2HgWhC5pXYf5XodTI06wQz8HZbD89Ywyu7vNfreGjWsdeb19tIwwALTZxX5NfpnPJIk42X1/sDx4BjoBUGogmZa8gcTK3A5O/jsLHpZhvnJusxbPHtt19kXDg7FM71eD3H1bPLy+XlGHAMOAYcA44Bx0A7DEQTsnaR+TcHm2PAMeAYcAw4BhwDjgHHgGPAMeAYqI6BaELmGrLqwnUguqwcA44Bx4BjwDHgGHAMOAYcA46BdhiIJmTtIvNvDjbHgGPAMeAYcAw4BhwDjgHHgGPAMVAdA9GEzDVk1YXrQHRZOQYcA44Bx4BjwDHgGHAMOAYcA+0wEE3I2kXm3xxsjgHHgGPAMeAYcAw4BhwDjgHHgGOgOgaiCZlryKoL14HosnIMOAYcA44Bx4BjwDHgGHAMOAbaYSCakLWLzL852BwDjgHHgGPAMeAYcAw4BhwDjgHHQHUMRBMy15BVF64D0WXlGHAMOAYcA44Bx4BjwDHgGHAMtMNANCFrF5l/c7A5BhwDjgHHgGPAMeAYcAw4BhwDjoHqGIgmZK4hqy5cB6LLyjHgGHAMOAYcA44Bx4BjwDHgGGiHgWhC1i4y/+Zgcww4BhwDjgHHgGPAMeAYcAw4BhwD1TEQTchcQ1ZduA5El5VjwDHgGHAMOAYcA44Bx4BjwDHQDgPRhKxdZP7NweYYcAw4BhwDjgHHgGPAMeAYcAw4BqpjIJqQuYasunAdiC4rx4BjwDHgGHAMOAYcA44Bx4BjoB0GoglZu8j8m4PNMeAYcAw4BhwDjgHHgGPAMeAYcAxUx0A0IXMNWXXhOhBdVo4Bx4BjwDHgGHAMOAYcA44Bx0A7DEQTsnaR+TcHm2PAMeAYcAw4BhwDjgHHgGPAMeAYqI6BaELmGrLqwnUguqwcA44Bx4BjwDHgGHAMOAYcA46BdhiIJmTtIvNvDjbHgGPAMeAYcAw4BhwDjgHHgGPAMVAdA9GEzDVk1YXrQHRZOQYcA44Bx4BjwDHgGHAMOAYcA+0wEE3I2kXm3xxsjgHHgGPAMeAYcAw4BhwDjgHHgGOgOgaiCZlryKoL14HosnIMOAYcA44Bx4BjwDHgGHAMOAbaYSCakLWLzL852BwDjgHHgGPAMeAYcAw4BhwDjgHHQHUMRBMy15BVF64D0WXlGHAMOAYcA44Bx4BjwDHgGHAMtMNANCFrF5l/c7A5BhwDjgHHgGPAMeAYcAw4BhwDjoHqGIgmZK4hqy5cB6LLyjHgGHAMOAYcA44Bx4BjwDHgGGiHgWhC1i4y/+Zgcww4BhwDjgHHgGPAMeAYcAw4BhwD1TEQTchcQ1ZduA5El5VjwDHgGHAMOAYcA44Bx4BjwDHQDgPRhKxdZP7NweYYcAw4BhwDjgHHgGPAMeAYcAw4BqpjIJqQuYasunAdiC4rx4BjwDHgGHAMOAYcA44Bx4BjoB0GoglZu8j8m4PNMeAYcAw4BhwDjgHHgGPAMeAYcAxUx0A0IXMNWXXhOhBdVo4Bx4BjwDHgGHAMOAYcA44Bx0A7DEQTsnaR+TcHm2PAMeAYcAw4BhwDjgHHgGPAMeAYqI6BaELmGrLqwnUguqwcA44Bx4BjwDHgGHAMOAYcA46BdhiIJmTtIvNvDjbHgGPAMeAYcAw4BhwDjgHHgGPAMVAdA9GEzDVk1YXrQHRZOQYcA/2IgYcenpf95z+rGn7vvLM4K8vrG2+81OCPcE888Uip37Lwdd4NlXzWKaOH9T7CMeAYcAw4BqIJ2XAHzVpr/zFbd70/57911v1T6aRj7XX+q6Of4S6nmPIhz9FjNmj6IeuYeAbD75ZbbZa99tqi/HfMsUf0bX6R8YQJO2ennHp8Nu3ow7I99tw1x+hgyMymuXjxK9l77y/J5syZ3beyA4dvvfVqns/rb7i2b/Np5Vr3ecGC+U0k69NPPygt+3vvvdXk97nnnyr1WzdfYfihks8w31X/93v/wli33fZbZ1OnTs6mTz8xm3rY5GzX3XbMeF+1jJ381Wl/G260XtO4MnrMqK7lrVPee/ndjput0ll/1Np5+TcePXzK7OOYE5NWeB/u76MJ2XDXkH344dvF5OO3337Oyjo6O0H5/fdfsk023WhYDAC9Avvtd8wpZGpX5ZHdl1/+PXvs8Yey8Ttv35cynLDHLkXeF9UFyQAAIABJREFUr7n28r7L4xZbbpq9+uoLGVi1suX5p5++zWbPvmZQ86w8Pf/8wkHNRztsM/FRPhcufHxA88mEcsaMs/Lf9jtsM2BpW6LDZHvi/ntlO+60bWn6O+y4Tf79oIP2K+Q0GISsH/NZt/76uX856qipef+stmHdn39ekc1/7K/Z+qPWKsVMu/YWfqvT/lat+qnApM3fv/+9MmOBYd68OzNIb5jmUPg/f/4DRdn222/P0jIsXfpG4WfzsaNL/QyFsvo45iRsKOC013mMJmS9ztBgx//55x8WHRwdPKuCNk+sFtqOn+exW2zS4Mf69+c/ZPfee1uTzEIZ/v77r9kFF5zTd3Ls5wkTk+jvv1/eVraffVau9RgoXKqenZCVD7j77rtHUX+XXXbhgOHfErKqk2o0GarPwSBk/ZjPuvXXr/3LjPPPKupadV7mbjtui9qYrUPIWNQry5d9969/rcwOO/zg2vkcqD5T6bAtWOU48KB9S/PP7gP5GarE08ex8rFBOHB35MgnmpANdw1ZSMgWLXq6oSO8+upLiw5QHaETsvYNxhKyxx9/ODtvxpnZzJnnZ/fNuyP75ZcfCnmyqsl2mH7qgNCQ/uUvV+e/PffatW/yxrYcK7uvvvokO/e8M7J99p2QHTrloOzmm2dnq1atzJyQtccmWKszIayL1boT+tT0nZB1xkUV2datv37sXyBZ9B0a39jOy2IBfcuUKZOy6667Kvvxx6/z7/1EyBhX+F151SUZ4wyLfCrDDz98nY3ZZMO+6b+rYGskEDIfx7rTD1XBk/vpf1lHE7LhXqkhIWMFznbkH//93aKTV2ffiZC1OovWSpZl/svetQrfjffdPCNgCRnnm2z+xm4xJlux4qtCplW22KXIIiWMzedAP3eSPyRR+Pv443eysu0qW229eXbSycc2yDssR91zfJ3yqTyGGrJO4cJ88r9XddiKkNWVTVkZwnd1J/SpcnFC1p3BuRv1F2Ii5n9KO+oU/znnTC/6FraTl/nn7NKJJx7dlXOqddqfNGQQyDCfEEi7lZvztaEf/U9t63X6pE5hu03IOqUnWVg3VS7EUSWsj2PV+yHaia0bf64uu6Eiq2hCNlI0ZOxNZ6sDE8qzzz4tbwicc9IEc+XKFcVzGSGbNm1qxqQHzQVhWKF74YWF2bHHHdnUqBj0nnnmieyuu+ZmH3ywNPfPJJs4Tj/j5FzLQRzsiT/k0AObwjMoc77p9dcXZeztZxvbJ5+8n82f/2A2fvx2Tf4FTsI9+eSjedoXXnRetulmG2dXXHlx9vobL2YMdMhgyZLX8nwQhvjIJ3vbFUfobrPt2NwP/rQFqx0hI/wlM2cUsnz66f8pjTtGnsoT+9IffnheUQdoizhTgBaOsvA7+JADmtLDeIe+W7dM9koLN6UeVPfIau99ds/z+803X+TyYHFgzi3XNx2g59wK9SwsohGz+Wj3zDmhq66amWE5T0QYnGNh78EH76mkoTz1tBOypxY+ln3+xUf5KjSToY8+ejvDIEa4bUZ5hJBVLZ/Nf0q92/DhM5MSFgUWLXom30rL93BCSPleevnZHP+//vpjfkbvrLNPbZIx2EhpD8ifcPzU3pET9a73cltpZevKpVeEbOdddshxMeu6K5uwENZFlf+9ymeVtFv5qVt/Kf1LSj+Ris977rm16FuOPubwJty3kgvv6W+ps4suntEUjn4LzRXf7UJRavsjvXaEjO/09+qDbrrpuiJPdfrB1HGF/MS0224Qspj0yF+KXOhTqVP6rPPPPzufs3CumXHln//8Pu9Ly8iwj2Pl80Hqgd+oDdbJ52OMEcgRHDMn0zwG4yfyG7pbbzM24zy0flirDf34//4jdNGEbLhXojRky5d/mk86aQR0LpQb7Q3/IVccaFZHbwkZ5xweeODu4pv8WBeCIjmyimS/dXqmQbI6qfCQqCX/+1rLOPBvBz+FwyUepcfWTHtAWO9x2aeOf7tffb+JexV5sHEyEVNYts3xrRMhYwKsMG+++XJDvLHyVF522XXH7LvvviziVfyhy+RKYeTedtvNpeHaGfVIrQflh+2H6nT1Ti6kWXnD5TyBvn377ReVViIVHtKusGUu5IpFAPm3LsZrWFQoC6d3zz7XaH1P72PKR5qp9W7za5/HbbdVxoTMnrmTAQ87IVR+y1wmqjbO1Pbw8svPtZWhTfvkU45rSLNbcukV0aFfUP7ZMgYRxzhEqianV/m09Rj7XKf+SCulf5FMY9pRKj7nzburqMNbb/3vBvx1kpXyGWrECcckUd9ZfFRcqe2P8J0IGf270nzkkTWT0tR+MHVcSWm3dQhZSnrIM0UuECvJuJ2r+YDq3cex1deO2PmgZLPe+ms1zLfK5Ao+5D90OZdnw3AcJPTj/4cBIRspGjIIGdosQM3Egi1haAT4z2Bi78exhOyGG2cVDYFwjz56f77Kcf/9dxeDB3Gw3YMGERIytFPLln1axIFf9vArbf5bjYgdPJlMM2nkbJa1BAkpgzCEDdASMuLVD1PllA8tAgOeCBlnlOQH0hnGx/9ly1ZrBPGHdTbedSJkdhXTDpqEjZWn8vT2228WeYW0YHadyYXVLJHHMkKGJoxJEz+MF6jM7QhZaj0obrkQUsoMQdY7XGuB7zRDYGNXvjTggm/kftnlF+WaTDRCNr1x47Zsql+0l/IDthkQrrnmsvy8msh8K0KmcFXKV6feVf+4TPROOGFavqCi9K17732352UsmxCST87KLHiq0Ty81ZKmtgfyNPv6a/MfpFB5ArN6LxcjQrZMqe3BxsFzr4gO2me0iiqT3BUrluW4jj1z1Kt8hvKI+V+n/kgnpX+RHOVWaUep+LQ7FlgkOufc0/PV+ioyUv7qErIq7Y/8dCJkaBaVJ7sdPrUfTB1XUtqtJWR33jU3Y3Em/GFJV+WzuxNS0kOeKXIpI2TMY+g/bf9GPtlGKhz5OLbGII3mg5INGmbVK3XMrqRLL70gmzXriuzFl1aP1fSN8h+6Tsj6j2yFdVT23zVk/6celnCshgzCApmhYViN2P4H7F1KyNiup22O7F2fNGliQ4M54shDi0YmzYYlZGwjIx9sU1Jj1GWtbCXQO7YX4o8VR+2Rx7WmcVlhsZPsuXNvbMgL4UNChuZv0uTGPEOq1FnQ8UoeTLpQqUtuuAccuE+RRwZUfWtFyLibjAPYKheuvesrRZ6kOfng/Ys4kbMdqJCtZEZ6ZYRM+catYgWtTj3YskPabdp2QLZb5uiUFc5uw7FhWz0zoB951JRSrdrtt6/RDJKGjYNJpNJkkhbiBL9nnnVqhtEbG05hcKuWL7Xele5O48dlc+felP3jH98UeVY+IAaQc7uVNyRkTCKsRkeaceJgwqJ0UtuDwuPGnEGqKxebbi+JDv0Cky1N7iR7uWiYjjv+qErnj3qZTyuP1OeY+itLo0r/QjjJDrdqO0rFJ/2lNRhEmoxrTATpL+3iUFgm5bMOIava/ki7HSE78aRjGuQGkVZ+U/rB1HEltd3a/l9ybedqnEtND9mkyCUkZOzosOfH6G+Vb+pWdeDjWPN8ULKx803OdOq9XOZl7QygOSEbIYRsJGnIAL9dYaNT4dwNnU2Zhsxuj2h1way954xGZQmZtkRheUsdmDRRdtJ47azV92Fhkl/+ylZLWI3Sd4yRqDHLDQkZE2p9a+XacjPpsv44g6T07DdLyPjORLlsFT3UjqXIk/xAPpUPzsTZPPLM+Sd97wYhq1MPygdbCkItpiVBbAVVOZiQKdzFlzSf1ZC/WNeS/lDzRt0oTVY+q8atMDHlS6l32gdbX9HuKk25EHDaB5faWqKlMti2RRi2JekbLgTDTlBpN/qe0h4UFjdmQp8iF5uWfR4oooNGDOyGWn/kjKW+W+bekLGd1ObNPg9UPm2aMc8x9VcWbywhi2lHpJeKTxZtVq78rqktqU3Rzsq06Ppeh5DFtD8RMtLlvC0/NP9Wk8U3znKHC4hl9cG7Vv1g6riS2m5TCVlqeq3kofet5BISMvwpDO5GG6/fsFAtsubj2B+ycD4oudmdOXYhQd87uXbuB/6Zb3UK498Hn8S5hqyNhgyAcv5Bgwwu29h4bwc6bVm07/CLEY7wZ+OSpkLvWEkibrRbeofWQg1F76TtsitMrc6JyTwxmi3FI9cSMrQeZZNV+ZWLFk75YFuC3ttJK3HZSWtIyBTeumXEIkWe5McSrrILp88485SiDAxeKkOZW2XCVKceJANwEqZvB0C7/95uj2R7URiu038sW6L1QU5oYLmcm5+MfJAnJgM2Hm1J5FuZRUfr1z6nlC+l3u3ZJaXJtl3uU0ITa/MUPltChmGN8Dv///bsggIzVkOQ0h5s/DET+hS52LTs82AQHS6WxuiDtOyqJ7tqbvPI82DkM8xDu/8x9VcWT5X+hXCSVUw/Qbg6+KSds/iHgSmlb10WKcLJt76nErLY9mcJmdIOXXZ+2K1yqofYfjB1XEltt5aQXXjhuRljWfhDXiqvNGSp6aXKxRIyxhHFY127W0fjh49jHxR1Rx0yH5TM2OGhemU+dfsdczJ2WIWLtvJf5m62+eh8rEbeLPKX+fF3g0/CbB1EE7KRpiGDHNEg1DjUsdtOT4SsnXENhbcumhWrIcMErCpH/uxEXBMZkTSrkapycaQ13086lpDpnJjSb+cyKVD+dCYEK0p6p7M5isMSMrYy0rlgHELbOwnH2S7FpXAp8iTsu+8uLvISlpnvbItUXrtByOrUg/LBgKVyy211CJ6zbApn8aFw7VzOg7DKrvCtXM4+2njUBsrMS1t/4bPijylfSr2XETIuGi+r/zCPlpCRdvid/3Y1N9yuGdsebPwxE/oUudi07PNgEB36OmRnV3/BhxOy1ed3251RTWlHqu86+FQcjHFsAaSulBfckHjpW/ieeFr1Z3XanyVkaAH4QRQpM3lgC3WZZiylH0wdV1LbrSVkVcZ3EbLU9KijFLlYQmYXaYUdXM5ACRt77Ln6Pk8fx9ac20c2zAclM9qKxlzJTS42Bdg+K7/u9hepqlMf0YSsTmJDIaw9Q6b8ok3gPIQ1WFBGyKwJa4wdTD/9pLY/BjlLyOy2NDW+G2+aVTQ8bfMTIcOssfzZ82PKN67VbLAiaL9ZQobJWvut3TPaLKUrEoklSr0LTXVbQmbvIWOgfOWV54tw4aQ9RZ7k2xo0KdOOHH/8tCLNbhCyOvUgmcVMYKxVynCbZ7t6YzXenp9Dvmw/ZI86W0y5rFv5YTXYxqVwEGf7vtOz4ospX0q9Y4oaIzRKTy75ZhLJ6mOre3jshFDnOMNyYa5bcVrDHviLbQ827hhCliIXm5Z9HkhChkYRIyXLv/6skKFkyQp/u63SA5lPK5+qzzH1VxZnrIYsph0pvTr4VBzWxQqr6o/FHW1Bw4/el+WTBTd9b2VlMbb9iZDFLBSl9oOp40pqu00lZKnppcrFEjLOh1qs6Jn5hepeFpp9HGucH2phXzKDlDG+t9o6HC6aKpy7Q5egRROykaYhawXuMkJmJw90bq3C2vd1CBnaEXVy3Ddi49Uz1vTww8AVbkm0hCycgCt8mYvWQVoWJll2oOU+qjBMK0KGP9Tq9nyOvRcsRZ7EaVdxwy01fIcoS27dIGR16kH5KJvAtFpRtsZTMOMe1msof/2HfCk9bb3VN9zdJ4wvvod4sBeib7Dhuk11bOOxz0ovpnyp9U66yIwFlLIrD9i+S7kpp82jJWSsrNtveraTo3AbbGx7UJy4MRP6OnKxafJs48JEdvi97L/tq9BylfnRO86NcH8j9xgKA3Lpi7DYyZk+O5lXWOv2Op82rZTnmPori38gCFkdfJblmfZiV++lmcGv3oeLa3yzxqpaEbLY9pdCyFL7wdRxxWK46rwAedk+J0ZDlppeqlwsIeNMVBlmLCHT2UMfx6oRB8Z3DHiwqGW3qNKfypJ1mcz9XTX59pOcoglZP2W+F3kp05CVpVNGyDDkoUnHjBlnlXZMYVx2khOrITtvxplFejpXZuNnoMQ8OXnCHL39xnMqISOsHSysFo697mE67QgZfim35Ga3jKXIk/gwb6/4ys6mWUMt3SBkdepB+YwhLGgWrblju/c8lL39b89AlBFVa2o3JGQ2LJa4bLztnlPKl1rvNh8MYocfcUiu1VYbUF5wWTiQ9VBLyJjgcd+ajYtnLWwQtmw/fkx7sHHbw9cQSfstfO6GXBSnnbR1k5BxXoH2ZbcjS+70QWwhCzX1ylOZ26t8lqWV8i6m/sriHwhCRrqp+CzLM+8++eT9oo9lUU3+tLhWtjBnNSKtCFls+0shZLYvi+kHU8eV1HZr6yyGkKWmlyoXS8hYqB09pvG8EnMcez6ZYyDgxcexeMLAuMbF0OpTW4391AnzMrS6/DBywyKZ2qm78bIfCJlFEzLXkK2uyDJChnZHDYUOKOyYVKFMWrStrw4hs6uzTNDDiSIWzJSfcIJNXuoQMmsCWGms7oybDSh0ImTkWwM5cWlLWIo8KRcr78oT1rXsOSIGYDtZ7AYhq1MPymcMIaOMHLZXWMoYnr/DD5ocjFrwzM+a0rVm9PkGVu2lySFeOI+l9LgTrwzbbBvkSgilh6swMeVLrXebrn0mX5xXsKSKfLHijT9LyHgvK6aKA2KncrBgo/fWjWkPNpzVLrPl0n4Ln7spl14RnfAsnyxckvewPFX+9yqfVdKu4iem/sriGyhCFoNPrmvhXKw1XmPzTlxa5MBirv0mogZRspozxjkMCKkdtSJkse0vhZCl9oOp40pqu00lZKnppcrFEjLqL7RsbM9sYyDG4sXHsT/khjc0H5Rs2OlRdvaR70uXvl60I82VFE4uc0y1NbmMg/ru7jAhZMO9IutoyJAN58zUALjziInvbrvvlP84u8QdHQwiHBDGfx1CRniMZCg9OrspUyZle++ze27+V+9xwwZP2DqEjPD2EmjSYADhffjrRMjwj7li5ZdtToojVp4KZ/fRs6LEpYrceWZJB+mFhIwzZ5AK/ey5KiaHeo9rJyyp9aAyxxAWyshql73kmgUAtA9MGjh8j+lncEbZJRN75xtmyNFmsn2PATM0Sx4SMs5fWeMAbJ1gxZutFEzCGYTZrmTPWZJuavlS611lLXNpa1yqTtmQTStCRp45A0qb4aC1tmHxPiSyNp2q7cGGgQzaBQImwmjupk6dnP/CRZZuyaVXREeEjH6UNlembbTl7/Tcq3x2Srfq99j6S+1fUtuRLUdVfErjr8vf+Q8JY/LHIp+MS5EnjDXYNOzuAwgY4SAI4UX37QhZTPtLIWR1+sHUcSWl3aYSMuojJb1UuYSEDNwwHtB/YtFYZ9+pV3sdDvn0caxxPqi2xByIcYerkJjTsZBM+7N3hSLPVlYXnZA1z0Ml2352XUMWEIi6hIyVDcVBg2n16xYhY8uM1S6VpdfK8ENdQgYBsOnRcZSBvQohowPRuTTi1Ip6rDyVPoNB2cXANr88h4SM/6GfVv+xdqT0UutBcccSMtJldb3MUILixLWEDE1hSEitXw7G639IyEgPTWAnmTIRkExwFV9s+VLr3abd7pltVtIqhhoy5Tl02fqB31bxVm0PYXgu9w7T0v9we2i35NIrogNxB5dhGVP/9yqfqfkpCxdTf6n9i/AQ245sfqviU4RMabZyWZQJNeXWzH6rcLzvRMjKwpa1vxRCVqcfTB1XUtptHUKWkl6qXEJCVlZ3vIOgl5139nFsVbFAr/ZadvY2lCuL2PIfuhC40H9oNCQM4/8Hn8RFE7LhXmmYfwfIZRcp27IzoOCPLTl2Sxx+OJPBSoZdGVLjYAB58aVncy0Gflm1F6FiRVlpSPvBSr3eoXEjnhtuXGN5kW9oaux2EKVFvGVnqBQfk0utdrYibfJb5trBFyMKlKXMn9062UrFTrj75t1RdCK6JJv3MfK06XN4GC2I7mL79tsvcqtF9h4ytuLZMGiNJL9OLvVow6bUg7QvaE5tXDxDUjXh0B11oR+wB3lauXJFU77ZohfWP9paa75ZZQT3aLs64QGNB5NkS54VB+dGjj7m8IZy1Clfar2HMur0n0mC2uqCp+b/nxZ79dlLysaKLzJutYVE8VdtD/Ivl/QxN80grDYumZYZ6+mGXCzR4X4bzqiExkqUPwZ3vtutUJ2MeihsXXco5DOm/lL7lzrtSHVQFZ8sVHAmOdSaC5O0/TvuvCU3yKS4rXvueWc09Q8Ye+DKg7L+rE77kwU67hqzeej0XKcfTBlXyE9su7XXqUAEy8qknRnMQ0JtSWx6xJ8iF0vI6Bcw4KEtreo/IZfkp6wMvPNx7JgG2aCttDtS1PZwWVRl506r+RbyZDyxYezZ/FZ14O+HICEb7mfIug3KrbbePJ/IQETGj9+u46SuTvqo/xl00VRp9b9OfJ3CYvJejZ6DxJ38d+N7qjzt1i8Mrijfhx1+cNfzPdD1ILlS52x1w3pVp/rnO5jELwOq4qjqMomCgJIek3XqpWrYFH+p9Z6SFmGQCWdp2Jpa1arkUGoPluioLbSycIdmQn7kDgYhU9r9mM9UnA1kuBR8siiEBoOt0LQHyEg7LbHKQ5th1wBjUbhgKT/t3JT21y6+Vt/q9oOp48pA92ex6cXIxRIyHVvI62/yxGzi/ntFz3lI28ex1eQAks29bXn7mzwxG7fdVi2vb7EYZ4FX/SUuW4ftd38efPJVVgeuIQu2LJYJyd81g5dB1lr6oxPtNzmVTQRYVWK1Vp2Vm41trtt+q8ehkJ+h0B6sHFl9R1thf1jlsn70zB2M1h/PnBXS9166QyWfvZRBN+IeavjsRpl7FYePK41jRhkh65XsPd5G2beSh52b0X+38ufvq8lzoOQUTchcQ9ZfFThQQCEdtCIYckAbZs8u/e3ZBX3X4E86+dh8EkneOEjMSh1bs7h4VGTshRcW9l2+B7I+Pa16bXkotQev63p1PRTl5/jsfp37uNIsUydkzTIZzP5ip/HjijkOcx1dxD2YefK0q2EkmpC5YKsJdjjKCTPGIjNyse6nix77qcwYQ1Aey1zOlXE2pp/y7HkZWm1rKLUHx9bQwlY36svx2f0693GlWaZOyJpl0o32mxoHCzGcPebH1s/UeDzcwNdrNCFzDdnAV1K/NAz2M2Oimy1LGMjA5HG/bvnjcDIW/3QYXqQMAokBk7JtJ/0iZ8/H0GhjQ6k9OKaGBqa6WU+Oz+7XuY8rzTLFWAdGkZgX3H//3U4A/BiMYyARA9GErJsDhsfV3Lm5TLovE1bwONSMsQ2Xb/fl6zJ1mToGHAMjDQM+rjjmRxrmvby9xXw0IXMNWW8rxAHv8nUMOAYcA44Bx4BjwDHgGHAMjBwMRBMyB8fIAYfXtde1Y8Ax4BhwDDgGHAOOAceAY6C3GIgmZK4h622FOOBdvo4Bx4BjwDHgGHAMOAYcA46BkYOBaELm4Bg54PC69rp2DDgGHAOOAceAY8Ax4BhwDPQWA9GEzDVkva0QB7zL1zHgGOg1Bh56eF7TtRDvvLO41OiNvbtP1kqfeOKRUr/dzvdQyWe3y+3xeR/gGHAMOAZGFgaiCdlwB8haa/8xW3e9P+e/ddb9U+mkg3seOvkZ7nKKKR+yGj1mg6Yfso6JZzD8cpfPa68tyn/HHHtE3+YXGU+YsHN2yqnHZ9OOPizbY89dc4wOhsxsmosXv5K99/6SbM6c2X0rO3D41luv5vnk0nOb/+H6vGDB/CZC9umnH5SW/b333mry+9zzT5X67ba8hko+u13ubsVHf7D868+afnfeNbdt/aWGU74ZI7fbfuv8HqTp00/Mph42Odt1tx0z3stPXbdOu8VCYvOYNKpreatbtjrh7XjbKp71R62dl3/j0cOnzD7+jSzy0grbQ/l9NCEb7hqyDz98u5h8/Pbbz1lZh2UnKNy9scmmGw2LjrxXQL79jjmFTLXCjovsvvzy79ljjz+Ujd95+76U4YQ9dinyfs21l/ddHrfYctPs1VdfyMCqlS3PP/30bTZ79jWDmmfl6fnnFw5qPtphmwmM8rlw4eMDmk8mhjNmnJX/tt9hmwFL2xIdLg+duP9eLS9K565Bvh900H6FnAaDkPVzPtvhazC/zZx5flFnwjjuM8880RZrqeEo61FHTc37dZuenn/+eUU2/7G/ZtxdVVcuddrtqlU/lcrl3/9embEwMW/enRmLcXXzOBjhuR9U8t5vvz1Ly7B06RuFn83Hji71Mxh5j03Txz8nYbGY6Wf/0YSsnwvTjbx9/vmHRUdFp8bqno2XVT91dnLHbrFJgx/r35//kN17721NMpPs5P7++6/ZBRec03dy7GdCxiT5+++Xt5XtZ5+Vaz0GCpeqXydk5QPnvvvuUdTfZZddOGD4t4Ss6uQYjYTqczAIWT/nc6DaU2w6kIoTTzw6/00//aSi/joRstRwM84/q0hDWClztx23RW2s1yFkLAaW5cu++9e/VmaHHX5w7XzG1lld/2wnVjkOPGjf0vyza0F+hirx9PGvfEypix8PP3hyjSZkw11DFhKyRYuebujQrr760qIjU4fmhKw9gC0he/zxh7PzZpyZsQJ737w7sl9++aGQJ6uTbGvppw4BDelf/nJ1/ttzr137Jm+jx4xqkN1XX32SnXveGdk++07IDp1yUHbzzbOzVatWZk7I2mMTrNWZ2NXFqhOy9vUzVIhjXRwMRHi2C2rM6kTIbH6qhoNk0ecoDbYBs8hAnzRlyqTsuuuuyn788ev8ez8RMsYjfldedUnG+MTioMrwww9fZ2M22bBv+n1bL62eRwIh8/Gvfb/ZChv+vr/lFk3IhnuFhoSMlTTbIX/893eLzlqddidC1uosWitZlvkve9cqfDfed3OvvyVknG+y+Ru7xZhsxYqvCplW2WKXIouUMDafA/3cSf6QROHv44/fycq2nWy19ebZSScf2yDvsBx1z/F1yqfyGGrIOoUL88n/XtVhK0JWVzZlZQjfdYPSH6AqAAAgAElEQVSQpchlqBCdoZJP6hUchfXb7n9ZvZW9K4sjBZu0ObXHXhCyc86ZXsTPNvSyfHN2CY1drKzK4qrTbqUhg0CGcUMg7RZwztOFfvQ/pR4IW7WelY51O4XtNiHrlJ7Nm55T5UL4KmF9/KtOLLrR1lSv7laXe4qsognZSNGQscecLQsMYGeffVreIXPOSQPaypUriucyQjZt2tSMyQSaC8Kw0vbCCwuzY487sqlzZ/BigLzrrrnZBx8szf0zySaO0884OddyEAd72w859MCm8Ay0nG96/fVFGXv02cb2ySfvZ/PnP5iNH79dk38BhXBPPvlonvaFF52XbbrZxtkVV16cvf7Gi/n5LmSwZMlreT4IQ3zkkz3qiiN0t9l2bO4Hf9qC1Y6QEf6SmTMKWT799P+Uxh0jT+WJ/eUPPzyvqAO0RZwNQAtHWfgdfMgBTelhvEPfrVsme6WFm1IPqntktfc+u+f5/eabL3J5sDgw55brmw7Cc+6IehYW0YjZfLR73nGnbbOrrpqZYTlPRBicY2HvwQfvqaShPPW0E7KnFj6Wff7FR/lqMpOajz56O8MgRrj9RXmEkFUtn81/Sr3b8OEzkwsWBRYteibfSsv3cGJH+V56+dkM/P/664/5Gb2zzj61ScZgI6U9IH/C8VN7R07Uu97LbaWVrSuXXhGdnXfZIcfFrOuubMJCWBdV/vcqn1XS7uRn1Abr5P0ldfjPf36ft0cwo34GIwM2DrX1lH6+G+2214TsnntuLfqko485vKHsVg5lz/TT1PVFF89oCkd/h+aK73aBKbXdkn47QsZ3xgn1XTfddF2Rpzr1kDoekZ+Y9t4NQhaTHvlLkQt9MXVKX3f++Wfncx3OQzMe0Z7og8vIsI9/5fNI6oFfbL+kcLhbbzM24xy1fli5td/9uc8I2XCvEGnIli//NJ900inTSVButDf8h1xxMFkdtiVknHN44IG7i2/yY10IiuTIapD91umZAZ9VRoWHRC3539daxoF/O4gpHC7xKD22ZtqDvnqPy35z/Nt95/tN3KvIg42TiZjCsm2Ob50IGRNghXnzzZcb4o2Vp/Kyy647Zt9992URr+IPXSbHCiP3tttuLg3XzqhHaj0oP2zd1KRO7+RCmpU3XM4F6Nu3335RaUVR4SHtClvmQq5YBJB/62K8hkWFsnB69+xzjdb39D6mfKSZWu82v/Z53HZbZUys7Jk7GfCwEzvlt8xlwmnjTG0PL7/8XFsZ2rRPPuW4hjS7JZdeER36BeWfrV8QcYw8QAas7Ko+9yqfVdNv5W+99ddq6A9VZusyMVb4uv18nXarPPSakM2bd1dR97fe+t9F2ZV+O1dyCzXphGGSqO+QWcWT2m4J34mQMS4ozUceWTMpTa2H1PEopb3XIWQp6SHPFLlArCTjdq7mEap3H/9W5XKz80jJJrZfUji5nMuzdcExEn1zt7dkDPm6huz/VhUENkvI0GYBTiYWbAlDI8B/BgV7P44lZDfcOKsANOEeffT+fBX1/vvvLgYB4mDbBmmGAzXaqWXLPi3iwC978ZU2/61GxA6CTKaZNHI2y1qChJRBGFRGuZaQEa9+mCqnfGgRGLhEyDijJD+QTsVj3WXLVmsE8Yd1Nr51ImR2NdIOfoSNlafy8vbbbxZ5hbRgdp1JgtUskccyQoYmDFLGD+MFKnM7QpZaD4pbLoSUMkOQ9Q7XWuA7zRDY2BUsDZwsOCD3yy6/KNdkshpp0xs3bsum+kV7KT9gm4H/mmsuy8+ricy3ImQKV6V8depd9Y/LhO2EE6blCypK37r33nd7XsayiR355MzLgqcazcNbLWlqeyBPs6+/Nv9BCpUnMKv3cjEiZMuU2h5sHDz3iuigfUarqDLJXbFiWY7r2LNDvcpnKI/Y/2hyVDasmbJr4NJLL8hmzboie/Gl1W2JvCveuv18nXarPPSakNmdDiwunXPu6flqvdJv50qWdQlZlXZLPjoRMrSZypPdRp9aD6njUUp7t4SM6w1Y1Al/YFbls7saUtJDnilyKSNkzH/od22/SD7ZRir8+Pi3xiCN5pGSTWy/pHBynZD1nnRJ1mVuNCEri2Q4vbOEDMICmaFDsBqx/Q/Yu5SQsV1P2xzZgz5p0sSiE0FGRxx5aNEJSrNhB2q2keGPbUrqLHVZK1sC9I7thfhj5VB73XGtiVtWSuwke+7cGxvyQviQkKH5mzS5Mc+QKjV6OlDJg0kXqnHi0e+AA/cp8sjAqPetCBn3wHCQWuXCtXd9pciTNCcfvH8RJ3K2Aw6ylcxIr4yQKd+4Vaws1qkHW3ZIu03bDqx2yxyTPoWz22ls2FbPDMxHHjWlVKt2++1rNIOkYeOAiChNJlshTvB75lmnZhi9seEUBrdq+VLrXenuNH5cNnfuTdk//vFNkWflA2IAObdbeUNCxmTAanSkGScOJh5KJ7U9KDxuzBmyunKx6faS6NAvMGnSJE2yl4uG8Ljjj6p0jqiX+bTyiH224wFnp8Lw9JvWQFGdfp64U9utzVevCRn9rDXSRH0zHkJQ6WftopLNF8/CRh1CVrXdkl47QnbiSccU+SFfLKAovyn1kDoepbZ3O25Iru1cjY+p6SGbFLmEhIydILQTyZp+WvmmbvXex7/meaRkE9svKZxcJ2Rr5rOSyUC60YRspJwhQ4NARdiVMjoHzt3QaZRpyOw2h1YXzNp7zhi07UCtLVFY9lNHJE2UnTReO2v1fViY5Jc/uxorALGqpO8YI9F7uSEhY0Ktb61cW24mXdYfZ5CUnv1mCRnfmSiXraKH2rEUeZIfyKfywZk4m0eeOf+k790gZHXqQflga0CoxbQkiK2gKgfERuEuvqT5zIX8xbqW9IeaN+pGabKCWTVuhYkpX0q90z7Y+op2V2nKhYDTPric1hItlcG2LcKwvUjfcCEYdqJJu9H3lPagsLgxhCxFLjYt+zxQRAeNGNgNtf7IGYt7t8y9IWM7qc2bfR6ofNo0qzxbzbmdsLcKW6efbxWn3rdrt/KD22tCRhos9qxc+V1TG1RbpH2Wad/1vQ4hi2m3ImSkyzldfuwYsJosvnEGPFx4tDK1z63qIXU8Sm3vqYQsNT0rg7LnVnIJCRn+bPiNNl6/YYFbZM3Hvz9k4TxScovtlxROrp0zgn/mafrmbu/JWjQhG+6VYjVklJXzDxoscNnGxns7EdOWRfsOvxjhCH82Lmkq9I4VIeJGu6V3aC0kc72TtsuuFLU6JyYzw2i2FI9cS8jQepRNVuVXLlo45YPtBXpvJ63EZSetISFTeOuWEYsUeZIfS7jKLpw+48xTijIwCKkMZW4VDVmdepAMwEmYvh3I7D56uz2SbUJhuE7/sWyJ1gc5oYHlcm5+MvJBnhjUbTzaksi3MouO1q99TilfSr3bs0tKk2273IuEJtbmKXy2hAzDGuF3/v/t2QUFZuxKf0p7sPHHELIUudi07PNgEB0ulsZ4g7Tsqie7+m3zyPNg5DPMQ9l/NLDKP/3d7XfMyXdAhIsqCmsJWWw/rzhS2q3C4g4EISMd+gcWDTFMJRlZl8WNcPKt76mELLbdWkKmtEOXHSN2q5xkGVsPqeNRanu3hOzCC8/NGAPDH/JSeaUhS00vVS6WkDH+KB7r2l0+Gnd8/PugqDvqkHmkZBbbLymcdTfbfHTehpE3ygH7zZ97S8qiCdlI05BBjhhw1Xmpg7adlwhZO+MaCm9dNCt2oMaUqwAvf3YiromMSJrVSFW5ANKa7ycdS8h0Tkzpt3MhD8qfzoRgDUnvdDZHcVhCxlZGJi8Yh9D2TsJxtktxKVyKPAn77ruLi7yEZeY72yKV124Qsjr1oHww8KjcclsdZucsm8JZfChcO5dzHWirFL6Vy9lHG4/aQJmZaOsvfFb8MeVLqfcyQsZF42X1H+bREjLSDr/z367Khts1Y9uDjT+GkKXIxaZlnweD6NDXITu7igs+hiIho22qTQjjcjnzyzY1K+86/TzxpLZbm4eBImQ2TcZGtgBSx5IPbki89C18T1yt+sE67dYSMrQA/CCKtGXywNbrMs1YSj2kjkep7d0SsirzAhGy1PRS8WkJmV3ctfjhbKawsceeq+8B9fFvzXl/ZMM8UjKL7ZcUzt3eEq2q8o0mZFUjHqr+Qg0Z5UCbwHkIa7CgjJBZE9YYO5h++kltfwxWdqC229LUCd1406yisWmbnwgZZrflz54fs7K3mg1W9uw3S8gwPWu/tXtGm6V0RSKxRKl3oaluS8jsPWQMeK+88nwRLpy0p8iTfFuDJmXakeOPn1ak2Q1CVqceJLOYiYi1Shlu82xXb2j77Pk55Mv2Q87AsMWUy7qVH1Z1bVwKB3G27zs9K76Y8qXUOyalMUKj9OSSbyaDrCK2uk/HTux0jjMsF2a3Fac17IG/2PZg444hZClysWnZ54EkZGgUMVKy/OvPChlKlqzUt9sqPZD5tPKp8szkh/bXaoueXdSo08/Xabe2HINByGz6WG9VvbMohEz0Xe/L+gkW6vS9lZXF2HYrQhazwJRaD6njUWp7TyVkqemlysUSMs6VCgvWZV6iupdlZx//GueVUghIbjH9ksK4O0QJ2UjTkLUCahkhs5MHOqlWYe37OgM12hF1VtwbYuPVM2fh8MMAFG5JtIQsnIArfJmL1kFaFiZZdsDkPqowTCtChj/U4/Z8jr0XLEWexGlXY8OtMXyHKEtu3SBkdepB+SibiLRaGbbGUzDjHtZrKH/9h3wpPW291Tfc3SeML76HeLAXom+w4bpNdWzjsc9KL6Z8qfVOusiMBZSyKw/Yvku5KafNoyVkZVtH8WsnOeE22Nj2YNOOIWR15GLT5NnGhanr8HvZf9tXoeUq86N3nP/g/kbuMRQG5NIXYbGTM312Uq6w1u11Pm1aqc+0Pwx4QDrtVjDKK0uzVnaxC2912q0tkyVkZe3R+rXPqeFsHDzTzqxWUZoZvul9uCjHN2vkqhUhi223KYQstR5SxyOL/arzCeRl+6oYDVlqeqlysYSMM1HkPfxZQqazhz7+NcsplBv/q/RLZeH8XTX59kJOriELOoEyDVmZ4MsIGYY8NOmYMeOsps6lLJ46A/V5M84s0tO5MpsGAx7myckT5ujtN55TCRlhbadvtXDsWQ/TaUfI8MsERXKzW8ZS5El8mLdXfGVn06yhlm4Qsjr1oHyWTZBaETI0i9Zssd1DHsre/rdnGcqIqjWZGxIyGxaLWjbeds8p5Uutd5sPBqPDjzgk12qrDSgvuCwcyHqoJWRM1LhvzcbFsxY2CFu2rz6mPdi47SFqiKT9Fj53Qy6K006+uknIOHdA+7LbkSV3+iC2goWaeuWpzO1VPsvS6sY7cMfF0Cqz2madft62vdh2G5ZJC2lYGw2/tfufGi6M85NP3i9kw2KcvmtRrmxBz2pEWhGy2HabQshS6yF1PEpt77YviiFkqemlysUSMvA1ekzjeSXajD3XzPER8OLjXzxhaNUvqf3JpU6Yz6HV5YeRGxbX9N3deNnHyCyakLmGbHWFlBEytDsaiOlIwg5GFcOkRdv66gzUdnWdCXo4UcSCmfJDp6n05dYhZNaUr9JY3ak2G1DoRMjItwZk4tKWsBR5UjZW3pUnrGTZc0RMaOxksRuErE49KJ8xhIwycmheYSljeP4OP2hyMGqh+rYmca0Zfb6DVXtpcogXzmMpPe7EK8M22wa5EkLp4SpMTPlS692ma5/JF+cOLKkiX6xc488SMt7LiqnigNipHCzY6L11Y9qDDWe1y2y5tN/C527KpVdEJzzLJwuX5D0sT5X/vcpnlbTb+WGxpOyMEWGWLn29wIv6sjr9fJ12G5bBnne0Vz+E/sL/VcJxzQvnaa3RGxsPbUSLI1jatd9E1CBKVnOG3DA8pPbXipDFttsUQpZaD6njUWp7TyVkqemlysUSMuovtIhsz3pjIMbixce/1cZzNI+UbGL7JYWTy9xUbU0u46e+u9tnhGy4V0gdDRmy4ZyZgMwqJBPf3XbfKf9xdom7NhgMOOiL/zoDNeExkqH06LSmTJmU7b3P7rkZX73HDRsuYesQMsLbS6BJg4GA9+GvEyHDP2aHlV+2OSmOWHkqnN0Pz4o1l7Zy55klHaQXEjLOnEEq9LPnqpgc6j2unXik1oPKHENYKCOrVvaSaxYA0D4w+HOIHhPO4IyySyb2zjfMkKPNZPseA19oljwkZJy/spMytmaxcs1WLSbhDKZsO7LnLEk3tXyp9a6ylrm0NS5Vp2zIphUhI8+cAaXNcGBa26l4HxJZm07V9mDDQAbtAgETWjR3U6dOzn/hIku35NIroiNCRj9KmyvTNtryd3ruVT47pdvpO30UuOCqEvpcFnogX/YuP/Aiq4t1+vk67TYsBwaX1CbJP4t2nO3iZxeuUsJpp4Aujec/JAy5kI6MUpE+xhpsGnbXAgSMcBCERYueLvJLuHaEjO9V220KIatTD6njUUp7TyVk1EdKeqlyCQkZuGEcod/FErLOzFOv9hod8unjX+M8Um0ptl9SOLlOyJrnr5LNQLiuIQsIRF1CxgqF4qAjafXrFiFjy5PVLpWl18rwQ11CBgGw6TExKQNtFUJGR6BtMcSpFfVYeSp9OvWyi4FtfnkOCRn/Qz+t/mNNTeml1oPijiVkpMu5gjJDCYoT1xIyJlwhIbV+OeCu/yEhIz00gZ1kyoAumeAqvtjypda7TbvdM9ulpFUMNWTKc+iyhQO/reKt2h7C8FzuHaal/+H20G7JpVdEB+Iec94llEX4v1f5DNOJ/V92Nk51JpdFJsVbh5DVbbfKAy6r3XYhR3nFtQaXbJiq4UTIbJxlzyzmhBp2e31EWRi960TI5M+6Ze02hZDVqYfU8SilvdchZCnppcolJGS2zuwzBJ0tdyEmffxbVSzsSzax/ZLCyWVhycqe59BoiPy6233yFk3IhnslYP4dEJZdpGzLzsCAP7bk0CHZb5zJYKXUrvAI5AwEL770bK7FIAwDtQgVK8qKR4MmK356h8aNeG64cY3lRb6hqbHbOpQW8ZadoVJ8TC61atmKtMlvmWsHUYwoUJYyf3brpLbwlPm7b94dRWegS7LxFyNPGy+HgNGC6C62b7/9IreKZu8hYyueDYPWSPLr5FKPNmxKPUj7gubUxsUzJFUTB91dFPoBe5CnlStXNOWbLXph/aOttWaYVUZwj7arEx7QeDBJtuRZcXD+4+hjDm8oR53ypdZ7KKNO/xns1VYXPDX//7TYq89eUjZWbpFxqy1qir9qe5B/uaSPOW0GU7VxybTMWE835GKJzhFHHppx1iQ0VqL8MUjz3W5p6mTUQ2Hruv2aT7QCVmOs+sJl0QPNuu0P6/bzddutrQcm3cg1XMxp1zcTvlM4Fjg4yxxq2yUb+ow77rwlN+Rk86Pnc887o6lfwdgDVyWU9YN12q0sY3LXmNKv4taph5TxiDzFtnd7DQtEsKxc2tHB/EVaXPmLTY9wKXKxhIz+BAMe2tIKZqRpJT/KW+j6+HdMg2xi+6VQnoxDaq+49kx/6Nf/9wEhG+5nyLoNsq223jyfyDDYsWe/06SuTvqo8ZkUoqnS6n+d+DqFxeS9Gi8Hgjv578b3VHnarV8YXFG+Dzv84K7ne6DrQXKlztnqhhWqTvXPdzCJXwZGxVHVZTIEASU9JuvUS9WwKf5S6z0lLcIgE87EsDW1qlXJodQeLNFRW4BglMkLDYP8yB0MQqa0+ymfTGa5H4mtwhCHcdtt1fJ6hTLZxr6r225j00v1z2ISGoxcLpMmZpCRdtplpUNbY7cBY1i40Ck/7dyUdtsuvlbf6tZD6ng00P1gbHoxcrGETMcd8vqbPDGbuP9e0XMl0vbxbzVJSO2XWBhWP4vL1uFWbcDf9wEh80rofiUMRZkyWFpLf3SG/VaOsgGdlWpWXdXpyCx1v+Xd8zO02tlQaA8WU6yio3WwP6xrWT965g5G649nzvzoey/doZLPXsrA4x5afUGr+vLxqLEeywhZK9n5+0bZ9Uoedk5Hv9+rdDze8vqM3rLoGrJyQY4EgKEVwZAD2jC73eVvzy7ou4Z70snH5pNI8saBYFbc2JrFBaIiYy+8sLDv8j0ScDRcyjiU2sNwkbmXY+SOP0O57n08asatE7JmmQwmxncaP66YGzFH0kXcg5mnkZZ2NCEbaQLy8q7pNDBHLDIjF+t+urCxn2SFMQTlsczlXBlnY/opz56XNVgbCrIYSu1hKMjT8zi08O/1Vb2+fDxqlpUTsmaZDGabYoGRM8v82Po5mHkZqWlHEzLXkPVXIxpI4LIvGRPdbFnCQAami/t1yx+HjLH4J6MSImUQSAyYlG0fGUhZelpDvx0NpfbgeBv6ePM6HLp16ONRc91hrANjSswn7r//bicAgcVvb+/NmBnuMokmZMNdIF6+4dcIWInjcDLGNrx+h1/9ep16nToGHANDBQM+HjlWhwpWPZ8Di9VoQuYasoGtIG8QLm/HgGPAMeAYcAw4BhwDjgHHwPDFQDQhczAMXzB43XrdOgYcA44Bx4BjwDHgGHAMOAYGFgPRhMw1ZANbQd4gXN6OAceAY8Ax4BhwDDgGHAOOgeGLgWhC5mAYvmDwuvW6dQw4BhwDjgHHgGPAMeAYcAwMLAaiCZlryAa2grxBuLwdA44Bx8DwxMBDD89rup7jnXcWlxofsncoymrsE088UurX8TI88eL16vXqGBi+GIgmZMMdDGut/cds3fX+nP/WWfdPpYMd9zV08jPc5RRTPmQ1eswGTT9kHRPPYPjlrqnXXluU/4459oi+zS8ynjBh5+yUU4/Pph19WLbHnrvmGB0Mmdk0Fy9+JXvv/SXZnDmz+1Z25LcMn1hDs2UZys/9UL7Tzzg5e+zxh7KlS1/PMQEu5s69qaOMU8MNhfpasGB+EyH79NMPSmXy3ntvNfl97vmnSv32S9n7vf9kLN9u+63ze5emTz8xm3rY5GzX3XbMeN8tGTLOvfXWqznmr7/h2qh46YOa2+6oqDi6VY5uxxPOC+r0t/2Os27Lrmp8Pi8YWuQtmpANdw3Zhx++XQx6v/32c7bx6ObOzw6M3KGxyaYbDYsOsmojj/V3+x1zCplqZRcX2X355d/zSdr4nbfvSxlO2GOXIu/XXHt53+Vxiy03zV599YX/396ZP01SVHv//VuMG/cSigQoQ4BsAQwKAxjs+77v+76O7CjbINsFhkUEBlFg5AoMOMCwCILcARRBdoZlABmUUcP3t3rjU/N+a05nZ3VXZnU/3f0854eOrK7K9eTJk/nNc/JkAa9a2vL85ZefFNdee9VI66w6PfnkopHWoxfPHnrYAV20U73//vfPy4XU+eefU3x7rTUG3gYWIXPnnlX+vv+DzQeeP+0eZftE94W//mWUxk8/s7hnm3PTqdxxDy0g4zLWPfbcufbCeu585Ps+++xe0XLYgKwtf46z/DziiIPL+Udj3YZffbW8gPe4K6stD7EoVt6LFj2UlN/KlV9WaZUH4T//uaIAuC9Y8LMCMNK2jqNIzz2mtk08f/HFR8ULv3+6uGfBHcU22/6gcbvGmc/a0DZ3/Pm6YLKAmHgkGZAp4XQN3333zx1Cgl0z21Z200IhstHG63fEsfH9+RvF3Xff1kWzkIb//vfXBYvecaPXOAt6FmeffbasJ23feSe+2z5VdFY/jzMgQ6OoevYK2awZxALN0n633Xasyr7ssguGwv+jbB9tReMgujLO0ZqiMb3hxnnF8ccfWdvm3HSWvuP+bAFZU95C4yJ6DhuQteXPcZWfc390VkVD0TIWbjF741r+bMpbbQAZm5axetl3//jHiuKQQ/dvXc+m7RlUPMxtbTvCZzYZ511zeSNt5bjyWVta5Yw/XxdMJhiDV5IB2XTXkIWAbMmSxzoE3ZVXXtolRByQ9R4AFpA99ND9xXlzzywuueRH5S4YGggJYnb9WIS1FWKDTI+G9Kc/vbL87bTzdmNTt1nrrV1Y2n3wwVvFueedUey62w7FgQftU9x007XFypUrCgdkvXkTXrGA5fXXl5b8idYKjeiji35danLFo7fddtNAeSBnwk3l71G2j7piRiv6pZiu5qZLpc8o4093QDaO8hOQhWwUT2JOyGYIsvOgg/YtrrnmilJTw/dxAmTMm/wuv+LignmUzQ214fPPPyrWW/87A5VNwx4XFpD98pd3F9ded3XBu2XL3q7aRfuwsOlXl3Hks351bvI9dX7wdUH/+b4J3UcVJxmQjaqiU1VuCMjYobKC7s2/vNYhLBAY/QBZ3Vm0ujbF4sfe1aUfxPtB2tBbQMbi0NZvo43XK5Yv/6CiaRMTuxxa5KSx9Zzq5370ByRqMn7zzVeLDTea1UFX6rvpZhsWJ550TNd725a25/j61VN1DDVk/dLZOup5WH1oAQu8qvIUslBQO6C13g8iTJ1wY2X2o8so20d9f3L5RRX92CyItSH2Ljed8upHF8XrFebwaa/8wm/THZCF7U39Pwz6n3POaRU/cqYxVqe11v5mccIJRw3kHG6dhqyJ7JWGDAAZ1hMAaU3V2cAI4+h/k7IU14ZtxlC/tBaQ7b3PblXd0RTfeut/V33ERu1UmWWm8Fu/9lk6hs9Ny0mdH3xd0ByQMS7Dfhn1/2RANlM0ZNhuYwrAQuzss08tO45zTlqYrVixvHqOAbIjjzy4YLJFc0EadrCeempRccyxh3cxAZPC44//prjzzvkFO/TEZ+FHHhxoR8vBO2zGDzhw7670DG528194YUmB7TtmbG+99adi4cL7ijlztuyKL6Yj3cMPP1iWfcGF5xUbfG/dcvGEDTcTATR4+eXny3qQhvyoJ7bfyiMMN99iozIO8WSC1QuQkf7iS+ZWtHzssf+J5p1CT9UJO+r7719Q9QF0xOYeLRxt4bf/AXt1lYfzDn23YYz2Koswpx/U99Bql123L+v78cfvlfRgc+DmW67rMtnArpx+FrI3Sn4AACAASURBVC+mLHK32nqL4oorLinw2CYgDJ/j2e2+++5qpKE85dTjS83Ru++9Ue7Sslh4441XCg6shxOn6ggga9o+S9Ocfrfpw2cmUQDKkiWPl6a0fO8HWNCMqh3sSitPeCNnPEB/0vHTeCd/+l3vFdZpZVPokts+2sn4QY5deNHcqt1qP3zITj3fQ+AvvqYdn3yyip9pI+1V2wjZ7Vd+hLnplEcKXZQmRQ5yrgW+x5Qq5HXllxKOIyBry5858lP9niIHc8ffXXfdWo3no44+tIP/+vVdzngIARny85lnF5fz69dff1GeAT7r7FOi9egFyKgr85lk0403XlPl0UbO586b1Cdl/NUBMvXBc889WbVtwYI7q7bpew6fkTZlvKsshSntUxqFTefN3PHn64L4+lr0X3udb5XrW+agv/3ts5K3WONqXYhTNMUNw80236jg/Kd+eMcN4wzifzIgG0Sh45yHNGSozTFXQtjhNIE6o73hP+DKHja3gIzdnV/84ueVIJGwtKHdhbfnAWycumcYiN070RAQ9fL/Pl9bHvHDxZLSko/KwTRz6dLfV//1nhBvaKQh1Pvd99i5qoPyI2ShojiYzfGuHyBDUCnNiy8+25FvKj1Vl22326r49NP3q3yVfxgi/JRGIWZpYTz+93LqkdsPKgfzQwkJvVMIaFbdCNlN1DcWuym7n4B2pY2FgCs2AWx5esZ5DZsKsXR6t/iJTq9vep/SPsrL7XfVNQxnb7lpwYLFnrnTAft+gMWaKTPWlHfueHj22Sd60lA0Izzp5GOr8nLpkts+ylNdQg0n35ik9J3NJNHFptP3ujB06lEXL3wfpmvDLylyELmnugDOoQvOIVjk2fY3fR5HQNaGP2l3jvwUTVPkRO74Y3Gv8tDENO0r4ildyniwgEzpYyFAMaxLP0DG/KW8Hnhg9SIxV87nzps5468fIDv8iIOqtrEuC2mTw2fkkTLeVWZO+5Q2dd7MHX++LlhZ8otdX6sPcMhl5YXGjA3hR8UPQ87l2bhobcM4g/ifDMhmioYMQIY2i05g4sUkjJ1R/rP4sPfHWEB2/Q3zqo4j3YMP3lui8nvv/XnHWRTMIejAEJChnfrww04bamzcVTblW42InVxYTCPU8VBkPUECygAMIcNYwWSZjUP3tA8tAhMCjExazigpHqAzzI//H364SiNIPLyC8a4fILO7fHZSIW0qPVWnV155saoroIWzK0y+VrNEHWOADE0Ywp4fh+bV5l6ALLcflLdCACltBiDrHaH1wHeqAbCpOzWaqOFv6H7Zjy8sNZns2NryZs/epKt/0V4qDryNALvqqsvK82oC83WATOmatK9Nv6v/CVkI4TSCDRWVb8O777m9bKMFLIw1FtjshLJrzbi1ZkGYO6mM3PFAnTCD5AcoVJ3gWb1XiBMhlUeYMx5y20d5qlvKApR0jCu14bXXXqryeeTRhdV7vh93XKdTj9x0OXQRXVPkINp1tBqii8Llyz8s+yb1zNE4ArI2/AlNc+Sn6KiwiZzIHX/WIoNNsHPOPb1g91z80CtU/VLGQwyQ0T7OqjEelCdhaIXRD5ChWVR6a+6fK+dz582c8dcPkHEuTG2LLYBz+Iy+TRnv4oWc9ilt6ryZO/58XbDaAY7W1+oDLDzES3ifxsrr0kvPL+bN+0nB5h7fkMWKH4ZjC8jCik63/1ZDxsAFzNBZViO25167RAEZ5noyc2QRt+++e3R08GGHH1gxhTQbFpBhRgY9rYmULgnFBEEMhXkh8dih1mKRcPfdd6rKY0fALrLnz7+h+qY+CwUTmr999+usM6BKzI1KXPRgURJOYnvtvWtVRyYclVMHyLhfBZMltYvQ3vWVQ0/K3G//Pas8obM1LYK2ohnlxQCZ6k3YxHtTm36wbWfxb8u2E5Y1aUGIKJ01U7Fp657RuLDzGNOq3X77as0gZdg8mPxUJouYkE+Ie+ZZpxRok2w6pSFs2r7cfle5W8+ZXd5v9de/flzVWfVg4Qw4t6a8FrAoXizkjIalW+54UD0JU84I5NIlt33UT3RIWYDa9vHMGFM+O+/yww7+COPa/03T5dJFZaXKQeQeix8tetU2hexwH3vcEY3OH40jIBNdCFP406bTcxP5SVzRjrCpnMgdf8wH1iESZTJvszCD5+zml9qhUPVMGQ8hIGMTxmpUZXlD3vCUyiLsBchOOPHoDrqxkFfaHDmfO2/mjj87v9kzZGoDoZ2rY+ekFbcpnxE/dbznto+ycudNtStl/Pm6oHt9LTra9bvdVNV31rm9HMqNLSCbSRoyOsvuQCEwOXfDoiymIbMLiLoLIO09ZzCBBWQyWbA7Q9JEWaF+9bxV92Hhkl8TRAzdc+hX33FGIuZTGAomFtT6VhfadrMosfE4g6Ty7DcLyPjOQjm2yxxqx3LoSX0An6oHjgFsHXmWKSpxKCP8bv83EfRt+kH1ZAcw1GJaYY4pqOrFgkXpLrq4+2yP4qWGFvSHmjf6RmWys9s0b6VJaV9OvzM+MH1Fu6syFTKpMz649NUuhNSGpoCFsQv4VjrCnPFg06dMuDl0oaw27RMNUxagtn0823oPA5DZ/JvKXVvHHDmo9GjEGJuhVQN0406lW+ZfX2Auq/hh6IBs1SF88VmKnICWueOPTakVKz7tkhWqB3IkZiWg7ynjwc7dpMcs0PIBAN8CRPhR3wXISMd5Yn5YNlhNFt84qx5ukCqPMKyT87nzZu74awLIdJ6aNjIXh23R/ybztOKmjvfc9lFe7rypuqbMD74u+EYRrq9FR2vpZDcu9L1faNfS8CLr135pcr4nmyzmFDJJaayGjHpjvkQH6IcZG+/tRCCTRfuO+DjhCH/Kh1CaCr2TS2i0W3qH1kL00ztpu+yOSN05MRYFpEOzpXwUWsGE1iO2WFVchWjhVA/MK/XeTirkZSeVEJApvQ1jwCKHntTHAq7YhdNnnHly1QaErdoQC5sI+jb9IBrAJ2H5duLUeTziWPNIzG/CdP3+49mSXVnohAaWy7n5yckHdWKytPnIJJFvvXYqbRqec9qX0+/2bI/KxGyX+4bQxIb1sv8tYPnt4kfKHXJ2yRHCnKfDwY7yDDc2csaDLTtlws2hC2W1aZ/anbIAte3j2S5ohgHIcumieubIQaW1IRc24/RBVgSinc4q2rh6dkDWCchS5CA0bDP+kGNsbtrxrT4jBCQhg9VXhPqeMh4sIANg2Pz0jNxR3lZDZwGZvochli3IKuWlMFXO586bueOvCSCz58B7OV1oMk+LLqnjPbd9lJc7b6quKfODrwtWOb/T+GB9LTrOn39jNb5Yn3KVAhZr4Sa44sfC7204q1z7IDdQmsTitH2XDMhmmoYMcEQHqpMl+OwgFSDr5VxD6W2IZsVqyHBZqg5VPLsQ10QvkGY1UnUqf3uQ0brvpxwrmHROTOX3Cpk0VT+dmbB3BulsjvKwgAxTRgYDziFk3klenO1SXkqXQ0/S2jMrYZv5jlmk6j8IQNamH1QPzEvVboV1ThM4y6Z0lj+UrlfIeQl2oZW+LuTso81HYyDmftnGC5+Vf0r7cvo9Bsi4aDzW/2EdLWCBV8PvbDYs++idimYHH7xfR5zU8WDzT5lwc+hCWW3ap/5LWYDa9vE8bECWSxfVM1cOKr1CZDmmvHY3Fvo5IFu1odnrDK74LEVOiO5txp/yYA7HBNCe6aROId+rnuF78qmT1xaQwasq04ZWu2HNwS0gY1eeH0CRNlMHTMRjmrEcOZ87b+aOvyaAzLa/1+I5F5A1Wffkto/+zZ03xRsp84OvC1YrThinrK9FR8am+kJjWCHnxjHXVdxRhsmAbJSVnYqyQw0ZZaJNwLbbOiyIATLrwhpnB6edfmLPH5OABWTWLE3McsON8ypGkZmfABlufxXPnh+zdLI7NOyY2W92IYILavut1zPaLJUrEGkdJ4Suui0gY3GovJlIrGvbcDLOoSd5W4cmMe0IjgRU/0EAsjb9oHqkTPDWK2Vo5inaxkImLWuTD30xP8SmGhNTLutWfdgttXkoHcDZvu/3rPxS2pfT77hqxgmNylNIvVlksVtWd29MP8BCG+05D13noLanjgelI0yZcHPoQhlt2ic6xvqPDRR9D70s2jYOG5Dl0kV1zJWDSo9GAwclFrSLLmhEepmCu4asU0MW47M6oCP6txl/ysOGaMXVf2xeMUfru97H6lk3Hiwg0zlx5aeQ6yOUN6bqei9AkrIRlivnc+fN3PHXD5Axd4smbN6KJrEwF5A1Wffkto965s6bamPK/ODrgs71thQloiVyhPVSnalyuAmtdFMZJgOymaYhq+uMGCCzkysCoi6tfd8GkKEdkcDCK5zNV8+69R7BHpok2oVIuABX+liI1kFaFhYhdiLiPqowTR0gIx5qYGs/b+8Fy6EnedpdztDkhO8AZdFtEICsTT+oHrEJvm4hYp2n4MY97NeQ/voP+FJ5Mr3VN8Ltd5hTfQ/5wV6Ivs531uzqY5uPfVZ5Ke3L7XfKhWaAJ2vqojpgvku7aaetYxPAct7cMyvaoOG16VPHg02bMuHm0qVN+7SrGG6W0AbrfGiUgCyXLuqHHDn43XXXKu+n5J5G8ZdCZC2e1TizaBfzKs+Gtu641rbf6p7tnIE2ri7eIN6n8GesvKYLZdEuRU6ovDbjT3nYEAAlvqde1imU3qeMBwvI0GzZsvRswYk1s88BZLlyPnfetDzcdN1Du22bYxY+OBMTX9TRTfRrymfETx3vue2jrNx5U+1KGX++Lmh2KTTrJRx4sIlmzyjCa/IMLvpPdZgMyKa6glNdXkxDFqtDDJBxoFwCZO7cs6KCN8zLTq6pGjK7SNS5Mps/EwnuyakT7ujtN55TBZNNb4Wp1cJdcMG5XeX0AmTkSbtFN2vSkUNP8sO9vfKLnU2zjloGAcja9IPqmbIQQbOI61altbbSto/CZ3tGIAZUrWvYEJDZtOHdWGE59r/qmNK+3H635SJ0Dz3sgFKrrTGguhCycSDvoU0Ai9WQxTxbpowHW097WJgy7LfwOZcubdqnzZLYRovdkR0lIMuli+ibIgc5P4D8sObW4itkLCZkoSWCyomFdrE3joAshT9j7Wu6UBYNU+SELS93/Nk87PNbb/2pkq9sGupbzniwgAyAxb1Uyk+hNk6hgz2fkgPIrKxOkfO582bu+LN9FgNkS5e+UPVBuAkmuilsymfETxnvxM9tH2ltX6TMm2pXyvjzdUEzQCbaErJO4GJoyZ+6tRQeXVnnokXmh1MdNuVsXoN4TgZkriFb1ekxQIZ2Rx2Lg4RZ68UP/jGpy6yvDSCzuycs0K0ghznw8KX6hAtsvqcKJstw1kWuykBrFjMR7AfIqLcmOvKSyUYOPakjO9OqE96n7DkiJii7mBoEIGvTD6pn6kKEw+hKSxvD83fQgZ1WnFqo36zrV+tGn+/wqr00OeQXzmOpPO7Ei/E2ZoNcCaHyCJUmpX25/W7Ltc/UC/t6u+ihXuwIE68fYMEkzZo5CMjZMlLGg01ntcuYXNpv4XMuXdq0TwtTFoZWU4DcwiGM+neUgCyXLqJvihwMzypikgSoog7KLyUcd0CWwp+xdjddKIuPUuSELS9l/HEdDed+rfOMMC9t4uAR2H7LGQ8WkNFOeUlWvmwcqf1sCOs9YQ4gy5XzufNm7virA2TMLdaEk7PzFhRb+ui5KZ8RP2W8Ez+3faTNnTfVrtTx5+uCb5SON7S+Fh2xnImdteS7Bf5aeyqdQtbsGqMKWVfo+6DCZEA2qILHNZ82GjLaxDkzdRh3HrHw/eH2W5c/zi49/PCDpZDlAC3x2wAy0uMkQ+XhLeqgg/Ytdtl1+9I9rt4ThgxK2lTBRBr7s5dAUwYC1n7Xcz9ARjzc+aq+mAEpbSo9lc7afbMDwiWA3HlmQQflhYAMQAmo0M+eq2LxpPeEdkLP7Qe1OXUhwu6MveSaDQB255lUOZyOa2Qmc9oumtg733DTjTYT8z2cnIRuu0NAxvkre3geVT8aElT/LFK5XgBzHnvOknJz25fb72prLGSscak6bYM2MUAGvdBUYc4AyOCCbi2KaAsezWI73JTXdDzYurFYsxsELBQBfDgO4RdusuTQxQKy1PZZbTIAjIUvC5Tw4vJRAjLomUMX9UOKHBQgY55AptTxgvLuF447IEvlz1z5mSsnLH2bjj9ZNOhye/7D1yzG2MSU8yzqxAWytoyc8RACMvLljDlzMo4HZAbJ+3CjTLIn5QxZGzmfO2/mjD8LyDDx5Yof5lE7r0ETZLHtA55z+Yy0KeNd5ea0j7S586bKTR1/vi7oXF+LjqwpGWdcLcUamY15xru9exVeq3McM7aAzDVk9RoyOh8kLlBHB9f9BgXIUGlb7VKsvDrHDzmCSQxOCACw5cHo9ruemwAyGF7n0shTO86p9FSZTHaxi4FtfXkOARn/wzh1//HOo/Jy+0F5pwIyymVXMOZIQHkSWkCGpjAEpDYuk77+h4CM8tAE9qMpE5doQqj8UtuX2++27F7P7LhKq2gBi+obCxln1gNamH/T8RCmwwQyVh7vQjOXHLq0aZ91K15XR96PGpDl0EX9kCIHWWAx7pS2bTjugIz2pfBnrvwUb6XKCUv/puNPgExl1oVsOoWWADnjIQbIYmViCkVc26YcQNZGzufOmznjzwKyGD1YQOMt0tJDz7l8RvqU8a7yctqntDnzptISpow/4vu6YGXpadvSMHbWN+Q5lAI2jX0GwIXxQ6chNn7us2vIAq2P3MSH9w2FBGYBQgdhsmJN4ojHWQCQt7wi2o5EwD79zOJSi0Fcdu0FqNhxVTnaJWInTe/QuJHX9Tes9rzINzQ11nxI5ZFv7AyV8kP4azewDrQpbiy0kxNOFGhLLJ41naxTCZPungV3VEyvS7J5n0JPWz4Xe6IF0V1sn3zyXullx95DhkmBTYPWSPTrF9KPNm1OP2h3FM2pzYtnQKomZN1RF8aB9wBPK1Ys76o3Jnph/6Otte6N1Ub4Hm1XP35AI8Ai0oJn5cE5o6OOPrSjHW3al9vvIY36/Ycn1QYb0kbMM/EEyjgMtVVhvk3HQ5gOO3YWHkwaGuOqR8xZTypd2rbv3PPO6OpvLuAEnPbjT9pqx5R1WBDSIfyfmi6VLiqvrRxUPjmhBWTci8NZmjoasSjguzWhGrZTD9qUwp+2z8TDdaGVn23khOjedPyxEcOZ69AqQPVk3N/xs1tqzeRSxwP001rgkUcX/n8rmVVnuykTTR0yPGZSJVNpNPNqZ5OwjZzPmTepU+r4s9fFQAcsBdDQYa7IuXJrIh22OZfPyCd3vKe2z9Y5dd60aVPGn9L5uuDojvGC1tha+GisE7JJjSVU3foVmjI/2zTW14FoPogwGZBNdw3ZIIhq89h0sw3LCZRF0Zw5W0aFro3f5hl1NZMSmirt/rfJr19aXN6LSTn42i/+IL7n0tMupnG4onofcuj+A6/3VPeD6EqfY+aGt6V+/c93eJK4HFhVHk1DJgkAKOWxSKRfmqbNiZfb7zll5aaZpPGQ2kY8a6IFRraEG1CpeU1F/EngF+hgAZlkUp1HOeuWXHGnApBNRX8Nooyc8cemFxoFTL05WwYYCbVUsbq1HQ/IXMrD9D3Fa22sLr3etZXzufPmpIy/XrTr9S23fVM9b9IGXxesPmqDSeKOO223arzvt0cxe8tNa6/Dsf3PhrlkLiEmzvb7oJ6TAdmgCvZ8VjPJJNKCRZn19NcPAIyijbGFI7sg7O5rcI3azeko6OJlDn7sTcJ48H4ffL+3pSlaArSM9oc3r1i+3IVp4/HMmaZY3Jn2zsff4Hjb583B0XKmjcPp2l671kUOD6udyYDMNWQzd7Cyu4MjB7Rh9uzSbxc/MjQGzWX8E086ply8UDcuPd5jz50LTIK4mFNg7KmnFo1dvXPb6+mmflxO0nhw/ph6/nCaD5fmPv4GT1+fNwdPU5cDk03TrefMrtaMrB1x7DSsPk0GZMOqiOc7/kyLTbfAjEK8+2HmMW79hzME1TEWcq6MMxnjVm+vz/iPA/XRJI0H1dnDyeEv76vefeXjrzd9cvjH583B0zSnHzzN+PQDGz+c5ebHEY1h9k0yIHMN2fgwyjAZI5Y39rccvMVUBgcZuAQeV5M/DjXj8U+HxQXKAJA4MImZZcTa7O9mLr/36/tJGg/92uLfnc8njQd8/A2eZ33eHDxNJ21ceX1HxwPJgMw7a3Sd5bTPoz0HqDmEi7MNp2EeDZ1uTjfnAecB54GZwwM+b86cvvZxPR59nQzIXEM2Hh3nA8j7wXnAecB5wHnAecB5wHnAecB5YPJ5IBmQeadPfqd7H3ofOg84DzgPOA84DzgPOA84DzgPjAcPJAMy15CNR8f5APJ+cB5wHnAecB5wHnAecB5wHnAemHweSAZk3umT3+neh96HzgPOA84DzgPOA84DzgPOA84D48EDyYDMNWTj0XE+gLwfnAecB5wHJpsHfnX/gq7rOV599aWo8yF7h6K8xv7mNw9E4zpfTDZfeP95/zkPzDweSAZk051J1vjmfxRrfvu/yt+31vzP6GTHvQT94kx3OqW0D1rNWm+drh+0TslnFHG56+b555eUv6OPOWxs6wuNd9hhm+LkU44rjjzqkGLHnbYreXQUNLNlvvTSc8Uf//RycfPN144t7ahvjD/xMmbbMsnP49C+0884qfj1Q78qli59oeQJ+GL+/Bv70jg33ST01yOPLOwCZG+//XqUJn/84x+64j7x5KPRuJPQ9kHUEXm37KN3un4/u3N+T7rkplOdWQNs+f3NynuJTjvthOLgQ/YrtvvhVgXvFadtyPz4hz/8rhwr111/dVK+yK7uMb92Uh5t6z+s9OF6oo2cnpT5fVi0rMvX1xOjAYPJgGy6a8j+/OdXqknvX//6qlh3VrcQsxMjd3Ktv8F3p4Wgqxucbd/ffsfNFU21s0sI7d5//y/lIm3ONt8fSxrusOO2Vd2vuvrHY1fHjTfZoPjd754q4FVLW56//PKT4tprrxppnVWnJ59cNNJ69OLhQw87oIt2qvff//55uSA6//xzim+vtcbA28BiYu7cs8rf93+w+cDzp92jbJ/ovvDXv4zS+OlnFvdsc246lTvuoQVkXDq6x547115Yz52PfN9nn90rWs50QHbJJT+qaKExS/j447/pyVe56eCnI444uJy3bHl6/uqr5QU8u9ba7WUFi2Llu2jRQz3bE/L5ypVfVmmVB+E//7miAPAvWPCzAjASppuE/9x/atvE8xdffFS88Puni3sW3FFss+0PGrdr3Of33P7InVd8PTEaIKZ+TgZkSjhdw3ff/XPHYGf3y7aVXbFQGGy08fodcWx8f/5Gcffdt3XRLKThv//9dcGid9zoNc4Cm8XZZ58t60nbd96J77ZPFZ3Vz+MMyNAoqp69QjZrBrHQsrTfbbcdq7Ivu+yCofD/KNtHW9EciK6Mc7SmaExvuHFecfzxR9a2OTedpe+4P1tA1pS30JyInjMdkAEqTjjhqPJ32uknVnTpB8hy08390VlVGeqDWLjF7I1r+bopT7YBZGx2xupl3/3jHyuKQw7dv3U9m7ZnUPEw07XtCJ/ZnJx3zeWNtJXjPL+3oVfOvOLridGCMfo7GZBNdw1ZCMiWLHmsQ2BdeeWlXcLAAVlvRraA7KGH7i/Om3tmwQ4lu1loICRQ2b1jEdZGEA06LRrSn/70yvK3087bjU3dZq23dgftPvjgreLc884odt1th+LAg/Ypbrrp2mLlyhWFA7LevAm/WMDy+utLS/5Ea4VG9NFFvy41ueLR2267aaA8kDNxpvL4KNtHXTEPE/1STFdz06XSZ5TxHZD1H59N+wdzQfFZP0Bm82yaDpCFTFUZmBOyiYLMPeigfYtrrrmi1NTwfZwAGfMtv8uvuLhg/mVTRG34/POPivXW/85AZZql7TCeLSD75S/vLq697uqCd8uWvV21i/ZhmdOv/HGd3/vVu9/31HnF1xODk0P9+qbX92RA1iuz6fAtBGTsNFmB9eZfXusY9Az8foCs7ixaHb1i8WPv6tIP4v0gbeEtIGNxaOu30cbrFcuXf1DRtImJXQ4tctLYek71cz/6AxI1qb755qvFhhvN6qAr9d10sw2LE086puu9bUvbc3z96qk6hhqyfulsHfU8rD60gAVeVXkKmfDVDmit94MIUyfOWJn96DLK9lHfn1x+UUU/NgtibYi9y02nvPrRRfF6hTl82iu/8NskATI0NmH9e/2P0T/2LpZHjlyirzROhwHIzjnntCp/zkLG6r3W2t8stXWptIrlVacha0IbacgAkGHeAEhr4s7GRxhH/5uUpbg2bNrPNo2e+6W1gGzvfXar6o6G+dZb/7vqIzZ4p8osM0VO9Guf6BALm5aTOq/4eqI5IBvE2I71Le+SAdlM0ZBhg41KHwF/9tmnloOec04S+CtWLK+eY4DsyCMPLphs0VyQhp2op55aVBxz7OGVAFGnINyZQO68c37BDj3xWfiRBwfa0XLwDtvvAw7cuys9g5Td/BdeWFJgw44Z21tv/alYuPC+Ys6cLbviq1zSPfzwg2XZF1x4XrHB99YtF0/YYiPQocHLLz9f1oM05Ec9seFWHmG4+RYblXGIJxOsXoCM9BdfMrei5WOP/U807xR6qk7YQ99//4KqD6AjtvNo4WgLv/0P2KurPJx36LsNY7RXWYQ5/aC+h1a77Lp9Wd+PP36vpAebAzffcl2X6QX24fSzeDFlkbvV1lsUV1xxSYHHNgFh+BzPbvfdd1cjDeUppx5fao7efe+NcreVSf+NN14pOHgeToCqI4CsafssTXP63aYPn5kMAShLljxemtLyvR9gQTOqdrC7rDzhjZzxAP1Jx0/jnfzpd71XWKeVTaFLbvtoJ+MHOXbhRXOrdqv98CE77nwPgb/4mnZ88skqfqaNtFdtI2TXXvkR5qZTHil0UZoUGH//6gAAIABJREFUOcj5FPgek6iQ15VfSjjOgGztdb5Vzgf02d/+9lk5BpgTJEdxImTbqr7LmccGIZfoR41TeMvWrddz03R33XVrlf9RRx/aOH/KzhlHISBD7j7z7OJyXv766y/Ks8NnnX1KtB69ABn1YR4UrW688Zoqjzb9kDvfUp+UcVsHyNTHzz33ZNW2BQvurNqm723m95T1kspLbZ9Nx3PT+TZ3XvH1RHxdrn5IlYNKR7jZ5hsVnP/UD6+69nv4nAzIwgym239pyFB/Y66E0MJpAu1Ee8N/wJU9bG4BGbs0v/jFzyuBIKFnQ7sLzw6U/dbvmQmRXTjRHRD18v8+X5sH8cPFktKSj8rDNHPp0t9X//WeEG9opCHU+9332Lmqg/IjZKGiOJjN8a4fIEPgKM2LLz7bkW8qPVWXbbfbqvj00/erfJV/GCLElEYhZmlhPP73cuqR2w8qB9NNLXr0TiGTgOpGyK6gvrHYTdnFBLQrbSwEXLEJYMvTM85r2FSIpdO7xU90en3T+5T2UV5uv6uuYTh7y00LFh72zJ0OyvcDLNZMmbGmvHPHw7PPPtGThqIZ4UknH1uVl0uX3PZRnuoSajj5xmSj7yzCRRebTt/rwtCpR1288H2Yrg2/pMhB5J7qAjiHLjh5YFFv29/0eVwBGQ5sLH+rzTZkYax2tp3H2sgl1aEpsFJ8hU3TsbhX+9HEKH2TUOlSxpEFZEofCwGKYR36ATLmPeX1wAOrF4m5/ZA73+aM236A7PAjDqraxnoupE3O/E4eKXJCZea0T2lT59vcecXXEytLfrHrcvVBqhxUOoWcy9M4I0Rrq2+xMBmQzRQNGYAMbRZEZOLFJIydUf6z+LD3x1hAdv0N86oOIN2DD95b7jLee+/PO86icBCZDgknMrRTH37YaQuNrbrKpnyrEbGTBItphDNns6wnSEAZgCFkACtgyFc/Dt3TPrQICHYBMs4oKQ6gM8yP/x9+uEojSDy8gvGuHyCzu3V2ciBtKj1Vp1deebGqK6CFsytMolazRB1jgAxNGEKbH4fm1eZegCy3H5S3QgApbQYg6x2h9cB3qgGw/XZcRA+FmnDhb+h+2Y8vLDWZ7Lza8mbP3qSrf9FeKg68zcR41VWXlefVBObrAJnSNWlfm35XOwlZ0OA0gg0VlW/Du++5vWyjBSyMNRbY7Niy+8y4teY9mC2pjNzxQJ0wg+QHKFSd4Fm9V4gTIZVHmDMecttHeapbykKSdIwrteG1116q8nnk0YXVe74fd1ynU4/cdDl0EV1T5CDadbQToovC5cs/LPsm9ezQuAIyNKJqG95asYq49NLzi3nzflIAhvlG3UXDtvNYG7mkOjQFVoqvsGk6a8nB5tk5555esHuufHqFomXKOIoBMuQnZ9UYR8qTMLTe6AfI0GYqvT0mkNsPufNtzrjtB8g4F6a2xRbAOfM7fZsiJ8QLOe1T2tT5Nnde8fXEagc4WperD1LloNIpHDogU0HTNbQaMgYgYIbBbTVie+61SxSQYa4nM0cWcfvuu0eHsD7s8AMrQSHNhp3IMCODrtZESpeEYkogIYN5IfHYodZikXD33XeqygPZ20X2/Pk3VN/Ud6GAQfO3736ddQZUiUlRbYseLErCyWivvXet6mg1XXWAjHtSMFlSuwjtXV859KRt++2/Z5UndLamRdBWNKO8GCATfQibeGFq0w+27Sz+bdl24rGmKSyKlM6am9i0dc9oXNhBhO/COLffvlozSBn2O5OYymQxEvIJcc8865QCbZJNpzSETduX2+8qd+s5s8v7rf7614+rOqseLJwB59aU1wIWxYuFnLWwdMsdD6onYYqtfy5dcttH/USHlIWkbR/PjDHls/MuP+zgjzCu/d80XS5dVFaqHETusYjR4lVtU8hO9bHHHdHoHsBxBWR2vrObEKIZ84J1wNRmHiPPXLmk+hA2BVY2TUo65hHrhIr+Zr4HoMKrdtMsLEO8kTKOQkDG5g1tVN6y2CFveFHvCXsBshNOPLoaj6S1nk5z+iF3vs0dt3ZetGfIbPvtHB87X624TeZ3xU2VE7nto7zc+VZ1TZlXfD3RvS4XHVPloNIpHDogm0kaMohqd5IQXpy7YfKJacjsAqLuIkd7zxmTmp3IZHpgd3ikibLC+ep5q+7DwiW/BL3drRQzcHhX33FGovcKQwHDglrf6kLbbhYlNh5nkFSe/WYBGd9ZKMd2mUPtWA49qQ/gU/XAMYCtI88yRSUOZYTf7f8mArtNP6ie7OSFWkwrlDEFVb0ANkp30cXdZ3sULzW0oD/UvNE3KpMd2qZ5K01K+3L6nfGB6SvaXZWpkMmZ8cHlrXZBozY0BSyMXcC30hHmjAebPmXizKELZbVpn2iYspC07ePZ1nsYgMzm31Tu2jrmyEGlRyPG2AytGqAbdyPdMv/6AnNZxQ/DcQVk1jLALtjD+ut/m3lMedSFveSSTTNsQEZZbGatWPFpl4zROEH+xKwL9D1lHNk5n/SYBdr2sjFgASJ8rO8CZKTjHDI/LCKsJotvnHEPN1aVRxjW9UPufJs7bpsAMp3Dpo3M4WFb9L/J/K64qXIit32Ulzvfqq4p84qvJ75RhOty0TFVDiqdQrsGhxdZ9+pbLEw2WYxlMp3eWQ0Z7cJ8CULqhxkb7+1CTCaL9h3xccIR/pQPoTQVeieX0Gi39A6theird9J22Z2NunNiLApIh2ZL+Si0AgatR2yxqrgK0cKpHphX6r2dHMjLTg4hIFN6G8aARQ49qY8FXLELp8848+SqDQhNtSEWNhHYbfpBNIBPwvLtBKjzeMSx5pGY0YTp+v3HsyW7q9AJDSyXc/OTkw/qxKRn85FJIt967TjaNDzntC+n3+3ZHpWJ2S73BqGJDetl/1vA8tvFj5Q73ex2I0w5T4eDHeUZbmzkjAdbdsrEmUMXymrTPrU7ZSFp28ezXZgMA5Dl0kX1zJGDSmtDLmzGeYOsCEQ7nVW0cfU8roBs/vwbK55HnuNCHAuPcNNI7bCALHUeUx45cklpCacCkFEO8o9NUSsX1NeEgCRkt62bvqeMIwvIABg2Pz0jr5S31dBZQKbvYYhFDDJOeSlM7Yfc+TZ33DYBZPb8eOh8Ru0kbDK/K36qnMhtH+Xlzreqa8q84uuJVU7zND5Yl4uOqXJQ6Wz4vQ1nlTIDuYGyxX4Ln5MB2UzTkAGOmJDUWRJgdrAJkPVyrqH0NkSzYicyXI+qgxTPLsQ10QukWY1UnereHsy27vspxwoYnRNT+b1CwIPqpzMT9s4gnc1RHhaQYcrI5I5zCJl3khdnu5SX0uXQk7T2zErYZr5jFqn6DwKQtekH1QPzUrVbYZ3TBM6yKZ3lD6XrFXLuAW2V0teFnH20+WgMxNwo23jhs/JPaV9Ov8cAGReNx/o/rKMFLPBq+J3NhmUfvVPR7OCD9+uIkzoebP4pE2cOXSirTfvUfykLSds+nocNyHLponrmykGlV4gsx5TX7qpCv0kEZMgejXnxgELOWWKmpnYTtpnHSJ8rl2wdpgqQ2TKZ+zEBtGdBoVM4XkS78D151cl5C8jgcVuunq12w5qRW0DGrjw/gCKyijpgWh7TjOX0Q+58mztumwAy2/66TQRomAvImqyXcttHvTT2Uudb8UXKvOLridUKF8Yp63LRMVUOKl1umAzIcgualHShhox6o03ARts6LIgBMuvCGmcHp51+Ys8fwtxOZNYsTQL8hhvnVcwhMz8BMtxuK549P2ZpbXda2Pmy3+xCJMVNMNoslSsQaR0nhK66LSBjcag6MCFYF7Xhoj2HnuRtHZrEtCM4ElD9BwHI2vSD6pEyUVuvlKGZp2gbC5l8rG099MX8kDMimJhyWbfqw66nzUPpAM72fb9n5ZfSvpx+x+UyTmhUnkLqzWKJXa+6+1/6ARbaaM9r6DoHtT11PCgdYcrEmUMXymjTPtEx1n9soOh76GXRtnHYgCyXLqpjrhxUejQTOCixoF10QbPRyxR8XDVktI3FCPKlzkTPbtq0mcfayCX1AeEoAJktH226+p1NL2ii73qfMo4sINP5cuWnkGsnlDcm7novQJKyoM/th9z5Nnfc9gNkzPmiCZu+okkszAVkTdZLue2jnrnzrdqYMq/4eqJznS4Fi2iZIgeVJjdMBmQzTUNWR9gYILOTKwO9Lq1932YiQzsiwYNXOJuvnnV7PQI6NEm0C5FwAa70sRCtg7QsLELswoz7qMI0dYCMeKhzrR28vRcsh57kaXcrQ9MRvgOURbdBALI2/aB6xCbqup1T6zwFN+5hv4b013/Al8qT6a2+EW6/w5zqe8gP9kL0db6zZlcf23zss8pLaV9uv1MuNAM8WZMV1QHzXdpNO20dmwCW8+aeWdEGDa9NnzoebNqUiTOXLm3ap53acLOENljnQ6MEZLl0UT/kyMHvrrtWeT8l9zSKvxQia/GQxplFuyhXeTa0dcdFtv1W92znDLRxdfEG9R75ggMPQKc9m0N75UnX1il1Y7GNXLJttIAsJm9sXPucm87mwTMASuMF2lhnUnqfMo4sIIuZtFOmBSfWPD8HkOX2Q+58a3m/6XopbHPMMggnZBqLdXRT3+UCsnB+VH42zG0feeTOtyo/ZV7x9USzS6GbyEHRPzdMBmS5BU1KupiGLFb3GCDjQLkEwdy5ZzWaKNtMZHaRqHNltq5MCLgnp064o7ffeM5ZiCgPOxFYLdwFF5zbVU4vQEZ+TOCimzXNyKEn+eHeXvnFzqZZRy2DAGRt+kH1jC0g6gAZmkVcUSuttXlW/8RCJhGliQFV6+I1nHBs2vBurFhZeqfyUtqX2+8qkxDheehhB5RabY0B1YWQjQN5D20CWKyGLObZMmU82HraQ7+UYb+Fz7l0adM+bZbENlrszuooAVkuXUTfFDnIOQDkhzW3Fl8hYzEFCy0RVE4stIu2cQVktt6MKy6GVpsle9rMY1a2pMolWzeetVGIN9XwW6//uenCPN96608Vbdhs1PeccWQBGQCLe6mUn0JtuNIf9nxKDiDL7Yfc+TZ33FpZGwNkS5e+UPVBuHkmuikcJiDLbR91s32RMt+qXSnziq8nmgEy0ZawTg7aODzjiZn1MVpkfjjVYTMvjKf/yYDMNWSrOi8GyNDuaKLCQcKs9eIH+JjUZdbXZiKzuyAs0K1ApoPx8KX6MMDV6QpTFiJKo9C6ulUZTGoxE8F+gIx6a8IiL5le5NCT+rEzrTrhRcqeI2LCt4upQQCyNv2geqYAFtrIoXKlpY3h+TvisGOKUwv1mXXhat3o8x1etZcmh/zCeSyVx514Md7GbJArIVQeodKktC+332259pl6YSdvFy/Ui51d4vUDLJikWbMtATlbRsp4sOmsdhmTS/stfM6lS5v2aYHJAs/u+CO3cAij/h0lIMuli+ibIgfDs4qYFgGqqIPySwnHFZCxGRQ7Y0Tb7IJXsrrNPNZGLoW0tuc57dUWYbzwf5N0XGPDeWHrPMPmgwzQ5g+ehO23nHFkARnjTN6VlS8bThp/bCTrPWEOIMvth9z5Nnfc1gEy5iRrwsmZewuKLX30PExAlts+6pY736pdKfMKaXw9scpZj9blomOqHFQ6haz1NUYVsh7R9zBMBmRhBtPtfxsNGbTgnJkIzy4dC98fbr91+ePs0sMPP1gKSw7CEr/NREZ6nGSoPLw+HXTQvsUuu25furnVe8KQ0UibshAhfvizl0BTBoIyjMP/foCMOLjlVX0xA1I+qfRUOmu/zY4ul5py55kFHZQXAjIAJaBCP3uuisWT3hPaiTm3H9TmFMBCG9llsZdcswHA7jyTI4fMcXHMpEzbRRN75xtuutFmYr6Hk5PQbXcIyDh/ZRctmC6hIcGUiUUq1wtglmPPWVJubvty+11tjYWMNS5Vp23QJgbIoBeaKsyzABlc0K3FDW3BM1lsp5rymo4HWzcWXXaDgAUfgA/HIfzCTZYculhAlto+q00GgLHoZKERXlw+SkAGPXPoon5IkYMCZMwTyJQ6XlDe/cJxBWTIYMYzV7Ewp7CRBfiydxUyHuQwoc081kYuhfTFoZRkDvVnU5KzXfzsxlxOOllCALqY6/jPeIAulCOnW5TPRdq2jJxxFAIy8uVsOnM5jgdkBsn7cINNMivlDFmbfsidb3PGrQVkmAZzNRDzr50PoQky3PYBz7nzO2lT5ITKzWkfaXPnW5WbOq/4eqJzXS46pspBpVM4dEDmGrJ6DRmdAKIWqEMo1P0GBchQTVvtUqy8OscPOQJGjEYIALDlMXHb73puAshgXJmNkKd2nFPpqTKZtGIXA9v68hwCMv6Hcer+421M5eX2g/JOBWSUy+5ezJGA8iS0gIwFSQhIbVwmb/0PARnloQnsR1MmINGEUPmlti+3323ZvZ7ZOZVW0QIW1TcWMs6sJ7Mw/6bjIUyHCWSsPN6F5io5dGnTPuvWv66OvB81IMuhi/ohRQ6yUGLcKW3bcJwBWa/+5hubaGp/G0DWVi6pDoTsPocLc7WDcWDj2ucm6QTIlF9dyGZVaEGQM45igCxWJqZQxLXtyQFkbfohd77NGbcWkMXoAVDFW6Slh55z53fSp8gJlZfTPqXNmW+VljBlXiG+rydWlh66LQ1jZ4RDnrNy0KblmY2sMH7oNMSmcQ1ZoPmRm/jwviFLNJ5ZgEBoTFbCnTfOArCTKK+ItkMQlE8/s7jUYpAPE5kAFTuuKkeTCjtieofGjbyuv2G150W+oamx5kMqj3xjZ6iUH0Jcu3p1oE1xY6GdZHCiQFti8azppExcYvHuWXBHxby6JJt4KfS0+XJBJ1oQ3cX2ySfvlV7D7D1kmAbYNGiNRL9+If1o0+b0g3Y50ZzavHgGpGpi1d0+YRx4D/C0YsXyrnpjohf2P9pa66ZYbYTv0Xb14wc0AiwiLXhWHpwzOuroQzva0aZ9uf0e0qjff3hSbbAhbcQ8E0+gjMNQWxXm23Q8hOmwR2cBgfDXGFc9Ys56UunStn3nnndGV39zkSbgtB9/0lY7pqzjgZAO4f/UdKl0UXlt5aDyyQktIOOeL87E1NGIyZ3v1hRqWE490JZYjbj4kZBNHSwHrLxvO4+1lUuW9iyCoWu4WdVr7iF9v3Rs4HBWO7QmEG2QF3f87JZaM7nUcYRc0BrikUcX/n/rmlVnwikTTR2yP2ZaKhNrNPqWNv2e2/RDznxLfVLHrb1mBjpgYYCGDnNFzqNb0+qwvVamqN/qwnB+z5UTqe2zdU6db23a1HmFtL6eOLpjvKTKQUt/npnXLX9ZHwlhXP4nA7LpriGLEanNu00327CcQJkMsGmPCc82+du0qJ1ZFKKp0u6//T7oZ1zei9k4wDro/GP55dLTLqZxuKJ6H3Lo/gOv91T3g+hEn2Pmhtekfv3Pd3iSuBw8VR5NQ4Q9AJTyWCTSL03T5sTL7fecsnLTTNJ4SG0jnjXRAiNbwg2o1LymIv4k8At0sIBMMgkgFKORdS+uuMMCZCofk8Qdd9quNIUGgM/ectPa6yOUpk3YVi61KTslLZtlaBQwEedsGWAk1FLF8ms7jpDVlIfJfIq321hder1r2w+58+2kjNtetOv1Lbd9Uz3f0gZ4wNcTqyzicuUgG+2S1YSYOPfij2RA1isz/9Z9zmq60oRFmfX0x+Adt7bGFo7s5LK7r0Eit83jVnevz2SNpUkYD85T48dT7PajZbQ/vHLF+oq7MG08njmbFIvr78avr6d7n/h86zw33Xk8tX12jYz87pc+GZC5hmzmDjp2aXDkgDbMmoP8dvEjfRmtHyMO+vuJJx1TLl6oG5ce77HnzgUmQVywKTD21FOLxq7eg6aD5ze88TpJ48H5YHh84LR12s50HvD51sfATB8DYfu3njO7Wmuy5sQhVBgn/J8MyMIM/P/MGYjYZgvMKMS7H+Ya48YHOENQHWMh58o4kzFu9fb6TM54mqTx4Hw1OXzlfeV9NWk84POt8+yk8eyw68uGLWfA+WH62aS8ZEDmGrKZO/Cwo+UALaYyOMjAte+4mvxxOBmPf3IqIVAGgMSBScy8osmA8Tgzl//Dvp+k8RDW3f87HzsPOA8Migd8vnVeGhQvzeR8kgHZTCaWt30yhQ4HoTlMi7MN78PJ7EPvN+835wHnAeeB8ecBn2/Hv498HI1nHyUDMteQjWdH+gDzfnEecB5wHnAecB5wHnAecB5wHpg8HkgGZN7Jk9fJ3mfeZ84DzgPOA84DzgPOA84DzgPOA+PJA8mAzDVk49mRPsC8X5wHnAecB5wHnAecB5wHnAecByaPB5IBmXfy5HWy95n3mfOA84DzgPOA84DzgPOA84DzwHjyQDIgcw3ZeHakDzDvF+cB54GmPPCr+xd0XQvx6qsvRZ3e2Lv75K30N795IBq3aflN401KPZu2x+P5GHUecB5wHnAeiPFAMiCLZTKd3q3xzf8o1vz2f5W/b635n9FFB/cL9IsznWjSti3QatZ663T9oHXbvIednrumnn9+Sfk7+pjDxra+0HiHHbYpTj7luOLIow4pdtxpu5JHh02ffvm/9NJzxR//9HJx883Xji3t4MM//OF3ZT259Lxfm6bD90ceWdgFyN5++/Vo2//4xz90xX3iyUejcQdNm0mp56DbPan5IX+WffRO1+9nd86v5Rc7P9S1e621v1nOH+vOWrs2n7q04/je5bUvyMeRL71Oo+XLZEA23TVkf/7zK9Xi41//+qqITQB2gcKdXOtv8N1pMUkMazDefsfNFU21w04I7d5//y/Frx/6VTFnm++PJQ132HHbqu5XXf3jsavjxptsUPzud08V8KqlLc9ffvlJce21V420zqrTk08uGmk9evE2iyPVc9Gih6a0nriInjv3rPL3/R9sPmVlW6DDpZV77Llz7UXp3DXI93322b2i0ygA2TjXsxd/zaRvl1zyo4pHNKYIH3/8N7W8zX2Wirv77jtF4y1d+vsqzoYbzYrGmQQ6u7we7YJ3EnjE6zhzeSQZkE13Znn33T9Xgp9J4rTTTugQ/lt+f7OO78TZaOP1O+JMdxqltu/uu2/ropkmYIX//vfXxfnnnzN2dBxnQMYi+bPPlvWk7TvvxLUeqX2YG1/964AsPsnsttuOVf9ddtkFU8b/FpCttfYajcpFk6j+HAUgG+d65o6P6ZYOi4ITTjiq/J12+okVv/QCZJi/iq/23me3KC+iZVccyphEurm8jsvASexLr7P35TB4IBmQTXcNWQjIlix5rEP4X3nlpdXEoAnCAVnvwWkB2UMP3V+cN/fMgp3UexbcUfz9759X9PznP1cU2/1wqw56D4PpU/JEQ/rTn15Z/nbaebuxqdus9dbuoN0HH7xVnHveGcWuu+1QHHjQPsVNN11brFy5onBA1ps34YVRasgckPXun0kBjikyZabExbRfc+RMB2Qur3uP85kyJrydzge9eCAZkPXKbDp8CwEZZnXrrf+daiH+5l9eqyYZTTb9AFndWbQ6esXix97VpR/EeybTQeRDHhaQcb7J5rvRxusVy5d/UNG0iYldDi1y0th6TvVzP/oDEsV/b775ahEz49l0sw2LE086poPeYTvanuPrV0/VMdSQ9UsX1pP/w+rDOkDWljaxNoTvBgHIcugyKUBnUuqpfs3ha6VtEzYpN8YnsXexeuSMBeqk8T+VgKxpm2w7c9qn9E3SurxuvhBHHou2Hjanm9Nq8mmVDMhmioZs5covi3/8Y0U5oZx99qmlgOCckyaYFSuWV88xQHbkkQcXLCbQXJDm888/Kp56alFxzLGHdwkbzlAxYd155/zi9deXlvFZZJPH6WecVGo5yIND9wccuHdXeiY+zje98MKS4quvlpdmbG+99adi4cL7ijlztuyKr4FLuocffrAs+4ILzys2+N66xU8uv6h44fdPl+e7oMHLLz9f1oM05Ec9sflXHmG4+RYblXGIJxOsXoCM9BdfMrei5WOP/U807xR6qk7Y699//4KqD9AWLVjws1ILR1v47X/AXl3l4bxD320Yo73KIszpB/U9tNpl1+3L+n788XslPdgcuPmW68p8bTmcO6KfxYtoxOz3Xs9bbb1FccUVlxR4zhMQhs/xsHfffXc10lCecurxxaOLfl28+94bBaamaOLeeOOVAocYoTmR6ggga9o+W/+cfrfpw2cWa2wKLFnyeLlRwPcQkNG+Z55dXMD/X3/9RXlG76yzT+miMbyRMx6gP+n4abxDJ/pd7xXWaWXb0mVYQGebbX9Q8sW8ay7v4oWwL5r8H1Y9m5TdK07OuFV+OXKCtKnyWnXMmVcGISeor8Y//Kz2h+EgTBZTx0NO+5Ad8CNt+dGPzi7nZs7vIj//9rfPSpmBU5OwfS6v4+se0Wntdb5VrjuQhdARnkH2ar7GWZXihuFmm29UcO5XP7yyhnH8/+QDlZnSh8mAbLoTRhqyZcveLhedCAeELu1Ge8N/wNXCX/+ymmwsIOOcwy9+8fPqmyYkGwJQREd21+y3fs8IKjxOKT0g6uX/fb42D+LXaUnIR+VhmmkPTus9Ifb7lGft+HffY+eqDqoLIQsxpcVsjnf9ABkLYKV58cVnO/JNpafqsu12WxWffvp+la/yD0MWx0qj8Lbbboqm6+XUI7cfVB9MNzUZ6Z1CQLPqRsg5C3375JP3iiY7tEoPaFfaWAi4YhNA8W2I8xo2FWLp9G7xE53e9/Q+pX2Umdvvtr72efaWmxY33nhNx5k7OfCwgEz1jYV33XVrB11yx8Ozzz7Rk4a27JNOPrajzEHRZVhAB7mg+gPWAeJHHHFw16aC7Ztez8OqZ68ym3xTG1P5OldOUKcUed12XmkjJ0S/qQBkueMhp30AK/V7r1Dznujg8nplSTe77hFtvr3WGh3rihhde12xwbk8m4ZjD8rbQwdik8YDyYBspmjIAGRosxjsLCwwCUMjwH92HO39OBaQXX/DvEpAkO7BB+8td3/uvffnpdabhPdfAAAgAElEQVRJwoODzzBLOHGinfrww7erPIiPS26VzX+rEVmw4M4qLotpFo2czbKeIAFlLARC5rQTvOpFiKty2ocWAZNNATLOKCkeoDPMj/8ffrhKI0g8vLPxrh8gQ2ulfB94oHOHK5WeqtMrr7xY5Qlowe36rbf+d4dmiTJjgAxNGKCMH84LVLdegCy3H5S3QgApbQYg6x2h9cB3qgGwqTuCWojA39D9sh9fWGoy0QjZ8mbP3qSrf9FeKg68zUR51VWXlefVBObrAJnSNWkffZjb7+p/QoDW8ccfWW6oqHwb3n3P7WUbY4CMel5zzRXFI492uoe3WtLc8UCdrr3u6vIHKFSd4Fm9V4gTIdumQdCF/IYFdDgDilZRbVK4fPmHZZ9uMXvjjvbYtsWeh1XPWFkp79QuhU35OldOULcUed12XmkjJ0THHECGe3w2IcIfHmNFa6uFzx0POe2LATLma+SEHcfUk7O8ooPL679Xfad1j2hz4UWrrWPoY6xvLr30/GLevJ8UTz+zak5CBih+GDogc9AV8sQk/08GZJPc2CZ1txoyJkDADALWasT23GuXKCDDXE9mjrgh33ffPToEyWGHH1gJJmk27MSJGRl1xExJk48ua8XEQu8wLyQe6nq5Oye0LoPZebKL7Pnzb+ioC+nDCR7N3777ddYZUCUhyoQkerDowtTA0nSvvXet6sgCRd/qABl3k11+xcVVGtpn7/rKoSdl7rf/nlWe0NlO4NBWNKO8GCBTvQmbeFls0w/qU0JAuy3bmvJYkzkmK6VD62PT9HtmoXP4EQdFtWq3375aM0gZNi+AiMpEkxfyCXHPPOuUAqc3Np3SpLQvt99V7tZzZhfz599Y/PWvH1d1Vj0ABoBza8obAjIWVywmlZ804+TBQk7vc8eD0hOmnCFrSxdb7jCBDnKBRagWvaK9QjSExx53RKN78oZZT0uP1Ge1hbDpuG0jJ6hfirxuM69QVq6csHTMAWSWrnXPkudtxkNO+0JAhuUCdFabkSuqs7TvfHN53b3uEc3suuqcc06raKnvrD96OfpyQOaATLwyHcJkQDaTNGR0MHb4ErKEnLtBCMc0ZCzuFbfugll7zxnCxk6cMonCs5/ykSbKLhqvnrfqPixc8itebBeJXTp9xxlJyLDhBM+COowT/rftZtFlv3MGSeXZbxaQ8Z2FcmwXPdSO5dCT+gA+VQ/OxNk68sz5J30fBCBr0w+qB6YWoRbTgiBMQdUOFoBKd9HFc6v3+p4bWtAfat7oG5XJjnDTMpQmpX05/c74wPQV7a7KVAgAZ3wcfMh+HUBLbbBjizSYu+obIQDDegNl3Oh7znhQWsIUQJZDF1uWfZ4qoINGDN4Ntf7Q+YsvPipumX99gTmprZt9nqp62jKbPIu3Uvi6jZygTinyus280q/9veSETTtsQDbI8WDrXde+EJARz6b77rprdWzICqy5vP5GEa57RDdrgYLlgN43De0ahzHJuqJpWo/nYG7ceCAZkI1bAwZdH6shI2/OP2jyJcSMjfd2ISaTRfuOuDjhCH82L2kq9I4dNvJGu6V3aC3URr2TtsvuvNWdE2PRQzo0W8pHoZ3g0XpYrYDihCFaONUDcw19t4tW8rKL1hCQKb0NY8Aih57UxwKu2IXTZ5x5ctWGQQCyNv0gGsAnoqVCuzCw5xKs2RMOURS/aYhnS7Q+0AkNLJdz85OTD+oU2u3LJJFvMY+OdWXntC+n3+3ZJZWJ2e7cH51VoImtqx/vLSDDsUYs7m8XP1LxjDUfzRkPNv8UQJZDF1uWfR4F0OFiaZzsSMuufrLaBFtHnkdRz7AOsf+qe8q4bSMnqEOKvLaALHVeUXtz5ITSEuYAsgsuOLdAZoc/OTqC7tKQtR0Pqe2zgAx5aduqZ2uVIjnp8vr1SnbSf6x7RC8sGTSWWDfcfsfNBZZE4eak4sfC7204q5yToDeb2bE4/s7B1yTwQDIgm2kaMsARgkJCQ7bhdjIQIOvlXEPpbciOqZ04cY0rplE8uxDXQkYgzWqkmlyoad33U46d4HVOTOX3ClmEqH46E4J3Kb3T2RzlYQEZpowIXZxDyLyTdHgNVF5Kl0NP0r722ktVXcI28x2zSNV1EICsTT+oHkzkardCTJz0nXOLes9ZNr23/KHvvcJzzj29YFdf6etCzj7afDQGOKdo3/d7Vv4p7cvp9xgg46LxWP+HdbaAjLLD7/y3u9yhuWbqeLD5pwCyHLrYsuzzKIAOsg7a2V1x+GOSAVkKX7eRE/RdirxuM69QVq6csDyWA8iazGMCZG3GQ077LCCzm5G2zZyBkszbcadV91a6vF7l1EN0Yd0jmjHHaW7Rd4Wcnef4geJ66KBquvNAMiCb7gQJNWS0F20C5yGsw4IYILMurHF2cNrpJ/b8AeTsxGnN0iSUbrhxXiWQZOYnQIbbbcWz58dsH1nNBjuC9pud4Hu5JbZpeEabpXIFIvFEqXehq24LyOw9ZGjVnnvuySpduLjJoSf1sw5NYtqR4447sipzEICsTT+IZuE9XbSjDpBZr5ShmWfYV/Y/5+Hs+Tnoi/khtvuYmHJZt+qD9symVTqAs33f71n5pbQvp9+54gAnNCpPIfVmwc+ubN39RBaQ6Rxn2C4uNFee1rEH8VLHg807BZDl0MWWZZ+nEpChUcRJybKP3qloKFqi+ehlKj2V9bT06fes+qfwdRs5QX1S5HWbeaWNnLB0GzYgyx0Pue2zgIxzkLatemYeFW/IE7HL6851kDawRTPmOeaxFSs+rWgnGhKGm4NK56EDtOnGA8mAbKZpyOo6PAbI7OIBoV+X1r5vM3GiHZHg4h4Wm6+e8aZHHLwlhiaJdoIPF+BKHwvROkjLwiILzZbqwX1UYZo6QEY8zA3s+Rx7L1gOPcmTBbjqE9r58x2grO+DAGRt+kH1SFnYWecpn322rKtfQ/rrP+BL5cn0Vt8It99hTvU95Ad7Ifo631mzq49tPvZZ5aW0L7ffKZfJnQ2U2JUHmO/Sbtpp62gBWcwEjbjWwUpoBps6HmzZKYCsDV1smTzbvHAdHn6P/beyCi1XLI7ecZ6G+xu5x1A8oBBZhMdOzvSRp9LEwmHXM1Zmk3dqSwpft5ET1ClFXtu+St3oayMnLO0sIIvRSXHt2ErRkFneaDrfUmZu+ywg40yU6m9DC8jkqdbldTPgAL/gwIPNG2uiyliTx2ZLa39uRlen0+TQKRmQTffOjWnIYm2OATIceWiinjv3rKjADvNqM3GeN/fMqjydK7P5Y9qBe3LqhDt6+43nlAk+TGsnUauF4wxAGLcXICMuCwbRzZqM5dCT/HBvr/xiZ9Oso5ZBALI2/aB6xhYsdRoyNIvWDbS1yQ9pb/8DslReDKhaF8QhILNp8VBm8+31rPJS2pfb77YeTO6HHnZAqdXWGFBdCNk4kPdQC8gAC9y3ZvPiWRsbpI2dU0gZDzZveygdIGm/hc+DoIvytIvZQQIyznEwvqw5suiODMILZ6ipV51i4bDqGSsr5Z3alMLXbeQEdUuR123mFTvWU+VESENt3OHdNPym/3bspACy3PGQ2z4LyGjXrPU6zytBc3sOl+MOtNHldfqCGPnNxdAaZ3VzHH3C+gOrGH5cHcJmkHjLw3TaO81GR7NkQOYaslWdFQNkaHckQBDMocAWo7NokVlfm4nT7q6zQA8XingwU33CBTZ1SZngVXeF1rW8ylg1SXU7UOgHyKi31ZLJJCyHntSPnXfV6YMP3uo4R8QCwy4WBwHI2vSD6pmysKONeNpUWtoYnr8jDpocnFqoz6yLYetGn+/wKto25RnyC+ex9I078WK8jdkgV0KoPEKlSWlfbr/bcu0z9eIchwVV1Etnlywg4728mCoPgJ3awYaN3tswZTzYdFa7jMml/RY+D5IuwwI64Vk+ebik7mF7mvwfVj2blN0rjvghha/byAnqkiKv28wrbeRESDN7vtJeNWHj5QKy3PGQ2z4LyOj/0IOvPZv85puvdvC7y+tvlI43tO5R/7PpCGDVfxsuXfpCJXe1JrDfeWYtpbGoEHkfxvP/owMZTvvmtE8GZNOduG00ZNCGc2YSDOwKsvD94fZblz/OLnF3CbvwOJ4gfpuJk/Q4yVB5TAIHHbRvscuu2xc333Jd9Z7voSAkbcoET/zwZy+Bpgwm1jAO//sBMuLY+mLmpHxS6al09nwBO21cNsmdZxZ0UOcQkHHmDFChnz1XxeJQ7wmtt73cflDfpSzsaCO7gJznUno2ANA+AEZPOPHo8tJn+Iy2iyb2zjfckKPNxHyPhUToljwEZJy/sosrTEo4G4GJCYtwFicczrbnLClX9UttX26/q62xkLHGpeq0DdrUATLqzBlQxgwH0O2h8xDI2nKajgebBjBoNwhw/IDm7uCD9yt/4SbLoOgyLKAjQIYcZczFtI22/f2eh1XPfuX2+57L17lygvqkyOs280obORHSDQdPohXjiE3C0884qfzJ4U4uIKOsnPGQ274QkKF5R+4hJ/DcqzPetNde+0I9XV53rnvEJ8z18AVX/rB2YcMU8GXvxISedV4XHZB1r8tEWw8njzbJgMw1ZKs6OaYhYwCw4yNQp4koFg4KkGHyZLVLsbLqHD+kTPCxwQ0AsOUhUGPxmgAyBKvMW8hTO+qp9FT5TJKxi4FtfXkOARn/wzh1//ECpfJy+0F5pwIWyuXcRMxRgvIktICMBVAISG1cPCjqfwjIKI8d/n40HRQgy+139Ue/kLOL0iqGGjLRIAwxiSFuXd5Nx0OYnsu9w7L0PzQPHRRdhgV0AO4p53lCWoT/h1XPsJzU/+qf1HGbKyeoX4q8bgPI2soJS0u0FXbjSHQjlIOnNoAsZzzkti8EZLYt9pmrRDC5s3Tg2eX1ymojWrSJnTG1tOSZzVrFD0MAXBg/dBoSpvH/kwdUZkqfJQOy6U4Y3L8zwGMXKdu244aceJjkaKdP3zmTwQ6P3TGT0GBn/ulnFpdaDOIzcQpQsaOsPDSJsVOvd2jcyOf6G1Z7XuQbmhomAZWhkHxjZ6iUH4tLudKvA22KGwvtHUw4UaAtsXjWdLLO9IB09yy4o2qDLsnmfQo9bfkcqkYLorvYPvnkvdKbk72HDFM8mwatkejXL6QfbdqcfpD2Bc2pzYtnQCr8Qj10l1AYB94DPK1YsVpbpnpjohf2P9paey2A4sL3aLv68QMaDxbJFjwrD85lHXX0oR3taNO+3H4PadTvP4snjdVHHl34/7XYq85e0jZ2wqFxnWmN8m86HhRfIeXjhpvFica4aBpz1jMIuligw70/nN0JnZWofix6+G5NxPo59VDatuG41rMNX+fICeiYIq/bzitt5YTtd0AT/RhuHmkusNcBxCw5yEuaRebbUFuSMx5y2mcBGfyPAw97PpVnwCX1se23zy6vj+6gDdpKa3khuUfI5iEWKnXrCuiK3LRp7Bl0S3d/dhA2CTyQDMimu4Zs0J226WYblgsZJh9s6Pst6tqUj1kEi0I0Vdr9b5Nfv7S4vJcw5IB1v/iD+J5LT2v6hcMV1fuQQ/cfeL2nuh9EV/ocUze8evXrf77Dk8RloaE8moaACBaWlMdinX5pmjYnXm6/55RFGmiy7757lCaqTb1KTtJ4sEBHY6HOw6S9RkJxRwHIVPY41jOHz0YlJ1Lq2lZOpJQ1iLipciKlfRaQyTy/lBP77VHssefOyXM7Zbu8XgUUANnc24bJPXcVzt5y09prSiyfsJEpuUDo95Y58LL8MWnPyYBs0hro9R3OAGWnz3r6Y3IZN1qHmkvqx24bLoslxN2d7nD4Y9x4Ydj1mYTxYGmAVgLtq/3hrczG0TN3MNp4PONJUd+HGU5KPYdJA897PGRUDJB534y2b+waBDnl/THa/nD6t6N/MiBzDVk7gk8yw6IVwZED2jBrfvLbxY+MnSA88aRjykUkdeOANTuYmGZx8a/A2FNPLRq7ek8yf8y0uk/SeJhpfePtnbnz1LD63gHZePHU1nNmV3M5c7ou4h5W/3u+49X/07E/kgHZdCSCt6nZQONeM4EZhXj30wWY40RHnCGojrGQc2WcjRmnOntdmvHhuNBpksbDuNDM6zFZPO79tbq/HJCtpsU48AUbYpyx5Yfp5zjUyeswXjwyaf2RDMhcQzZzGQ47b1x0Y7KEg4yFC39RjKvJH4e28finw/cCZQBIHJjEzBknbfB6fUc7FidpPDivjJZXnP6TT3+cdeD8h/nv3nt/7gAgchWO8/nk87n34ej6MBmQeWeNrrOc9nm0Z2eTw94conca5tHQ6eZ0cx5wHnAecB5wHnAecB4YDg8kAzLXkA2nI5zBna7OA84DzgPOA84DzgPOA84DzgMzjweSAZkzycxjEu9z73PnAecB5wHnAecB5wHnAecB54Hh8EAyIHMN2XA6whnc6eo84DzgPOA84DzgPOA84DzgPDDzeCAZkDmTzDwm8T73PncecB5wHnAecB5wHnAecB5wHhgODyQDMteQDacjnMGdrs4DzgPOAzOLB351/4Ku6zleffWlqPMhe4eivMb+5jcPROM6H80sPvL+9v52Hph8HkgGZNO909f45n8Ua377v8rft9b8z+hkx/0X/eJMdzqltA9azVpvna4ftE7JZxRxuWvq+eeXlL+jjzlsbOsLjXfYYZvi5FOOK4486pBix522K3l0FDSzZb700nPFH//0cnHzzdeOLe2ob4w/8c5p2zLJz+PQvtPPOKn49UO/KpYufaHkCfhi/vwb+9I4N90k9NcjjyzsAmRvv/16lCZ//OMfuuI+8eSj0biT0PZJrCPyddlH73T9fnbn/Np+COe/NnJlUuajqe5bn/8mH4xMNc+MY3nJgGy6a8j+/OdXqknvX//6qlh31tpdgtZOjNxJsv4G3+2KM46dPao63X7HzRVNtbNLCO3ef/8v5SJtzjbfH0sa7rDjtlXdr7r6x2NXx4032aD43e+eKuBVS1uev/zyk+Laa68aaZ1VpyefXDTSevTi/UMPO6CLdqr33//+eQkezj//nOLba60x8DawOJs796zy9/0fbD7w/Gn3KNsnui/89S+jNH76mcU925ybTuWOe2gBGZfb7rHnzrUX1nPnI9/32Wf3ipYOyKZ2IXrJJT+qaC8ZQfj447+p5WPu67Rxef7ii4+KF37/dHHPgjuKbbb9QW3akH/HfT4K69v0f64c9Plvavm/aX96vLx+SQZk053Q77775w7hedppJ3QIyy2/v1nHd4TrRhuv3xFnutMotX13331bF83CCerf//66YNGbmvew44/zBMji7LPPlvWk7TvvxHfbh0035a9+HmdAhkZR9ewVslnD5bBq2yDC3XbbsSr7sssuGGjeqt8o20cdtvvhVlUbGedoTdGY3nDjvOL444+sbXNuOrV7EkILyJryFpYF4lMHZHkLn1zeQEN1wglHlb/TTj+x6odegAyzUvVXLGQzbd41lxdY3vSr1zjPR/3q3ut7jhz0+W9qeb9X//m3wfRFMiCb7hqyEJAtWfJYh5C88spLu4SrA7LezGgB2UMP3V+cN/fMgp1GdgfRQGiS+uc/V5SLt3Ea3GhIf/rTK8vfTjtv18ELo6znrPXW7qDdBx+8VZx73hnFrrvtUBx40D7FTTddW6xcuaJwQNabN+lDC1hef31pyZ9ordCIPrro16UmVzx62203DZQHchYiqXw3yvZRV8y8RL8U09XcdKn0GWV8B2T9x+co+6dX2QAo8XVTQPbLX95dXHvd1QUgbdmyt6v05IMlSa/y+Dau81G/evf7nioHff6b3HHTjxdm8vdkQDbdiRUCMszq1lv/O5WgfPMvr3UIUQRpP0BWdxatjpax+LF3dekH8b7Jbl3TciwgY3Fo02208XrF8uUfVDRtYmKXQ4ucNLaeU/3cj/6ARC0G3nzz1WLDjWZ10JX6brrZhsWJJx3T9d62pe05vn71VB1DDVm/dLaOeh5WH1rAAq+qPIUsoNQOaK33gwhTFyKxMvvRZZTto74/ufyiin5sFsTaEHuXm0559aOL4vUKc/i0V37ht0kDZMOmR0gf/W9Sbqy/Y++Upw1z5CB1klxoCsj23me3iv/RiN56639XebAhiQbO1mtYz03oqbKb0lDxbdi0nFQ56PNfc0DG+TrbJ/7cnHZTTatkQDZTNGQrV35Z/OMfK0phefbZp5YMzTknCeAVK5ZXzzFAduSRBxdMtmguSPP55x8VTz21qDjm2MO7BgcH3RHod945v2CHnvgs/MiDA+1oOXjHYe8DDty7Kz1Cj938F15YUnz11fLSjO2tt/5ULFx4XzFnzpZd8cVkpHv44QfLsi+48Lxig++tWy6esG0HiEKDl19+vqwHaciPemITrzzCcPMtNirjEE8mWL0AGekvvmRuRcvHHvufaN4p9FSdsC+///4FVR9AxwULflZq4WgLv/0P2KurPJx36LsNY7RXWYQ5/aC+h1a77Lp9Wd+PP36vpAebAzffcl2XKQv29vSzeDFlkbvV1lsUV1xxSYHHNgFh+BzPbvfdd1cjDeUppx5fao7efe+NAhM0NHFvvPFKcd31V3ctKFRHAFnT9lma5vS7TR8+s7gAoCxZ8ngh8NUPsKAZVTtor/KEN3LGA/QnHT+Nd/Kn3/VeYZ1WNoUuue2jnYwf5NiFF82t2q32w4dovPkeAn/xNe345JNV/Ewbaa/aRnj5FRd35JubTnVKoYvSpMhBzvvA95iYDWLxPK6ATP2QIpcsPadiPlIdc+bNQchB+EZyAV5W+8PQmixaQKZ4zz33ZJXPggV3duXTZj5Kmd9VH8KccaT0TeeHXDno8198HSn6r73Ot8p1HLL2b3/7rOQt1nJa/+D8S3HDcLPNNyoWLXqo+uEFNozj/4cH6JIB2XTvDGnIMCfAXAmBi9ME2o32hv+AK3vY3AIydr1+8YufVwJWAtuGWgiSpz0PYOPUPTOw1lr7m9UgAUS9/L/P15ZH/HCxpD4kH5WDaebSpb+v/us9Id7QSEOo97vvsXNVB+VHyEJFcTCb410/QIYAV5oXX3y2I99Ueqou2263VfHpp+9X+Sr/MGRSUBqFmKWF8fjfy6lHbj+oHEw3JTz1TiGTqupGyKSubyx2U3Z3Ae1KGwsBV2wC2PL0jPMaNhVi6fRu8ROdXt/0PqV9lJfb76prGM7ectPixhuv6Thzx8RDvH6AxZopM9aUd+54ePbZJ3rSUDQjPOnkY6vyKDeHLrntozzVJdRw8o3JW99ZFIsuNp2+14WhU4+6eOH7MF0OXVTfFDmI3FNdAOfQ5YgjDu7aNFHe/cJxBWRqY+q4zZWD0CmlH9rOm23koPp0UIDs8CMOqniK9YfyV5gzH6XSU2W1GUep80OuHPT5b2XJL3Ydqf7D8ZSdlzSObdjrqgzO5dm4aG2Vt4fDA2KibTIgmykaMgAZ2iyYk4kXkzB2RvnP4sPeH2MB2fU3zKsYmnQPPnhvuVtx770/7ziLwsFgOiGcWNBOffhhp235H/7wu6psyrcaEXbUNIBYTN91163l2SzrCRJQxkSpTldoJ0DlQcihe9qHFgFNmQAZZ5QUD9CpfGz44YerNILEwysY3/oBMrRWyveBBzp3ZFLpqbq88sqLVZ6AFs6uYB5iNUuUGQNkaMKYBPlxaF516wXIcvtBeSsEkNJmALLeEVoPfKcaAJu6g6WFCPwN3S/78YWlJvOZZxd3lDd79iZd/Yv2UnWCtxHsV111WXleTWC+DpApXZP20Ye5/a7+J8RUA6cRbKiofBvefc/tZRstYGGsscBmh/iss08pGLfWg+U555xW0SV3PFAnzCD5AQpVJ3hW7xXiRMi2KYcuue2jXNUtFZAxrtSG1157qcrnkUcXVu/5ftxxnU49ctPl0EV0TZGDOBr5+usvqvaIPsuXf1jy7BazN+7oL5VRF447IFP7mo7bXDkIfVL6oe282UYOqi8HBcg4FyY6xxbAOfNRKj3VpjbjKHV+yJWDPv/9veIXrSPVf1gyiJfwsow106WXnl/Mm/eTgk0sviFzFD8MHZANH3SFNLf/kwGZTTwdn62GjAkCMAMTW43YnnvtEgVkmOvJzJFF3L777tHB+IcdfmA1WKTZsBMLZmTQ1JpI6ZJQTCw00DAvJB471FosEu6++05VeeyU2EX2/Pk3VN/Ub+EEiOZv3/066wyo0qDHVED0YFGCalx5Ee61965VHa2mqw6QcTcSJktqF6G96yuHntRjv/33rPKEzta0CNqKZpQXA2S2TU28WrXpB9t2Fv+2bGvqAjjQN4Sr0qH10fsmIRoXdmThuzD+7bev1gxShv3OokBloskL+YS4Z551SoE2yaZTGsKm7cvtd5W79ZzZ5f1Wf/3rx1WdVQ8WzoBza8prAYvixUKcTFi65Y4H1ZMw5exELl1y20f9RIdUQGbbyBhTPjvv8sMO/rDxwuem6XLpovJS5SByj0WhFvVqm0J2/o897ohG9wBOAiBrOm7byEH6IqUf2syblJUrB8UzhIMCZORl56TYeWCV22Q+UtwUepKmzTjKnR9U1xQ56PNf9zpSdLTrVLt5qO+s59hU0v8wdEA2YYBsJmnIYFbs1DXREnLuhskgpiGzCwjO04TMzn97zxmDw04saLeIY3fMpIlit1/1uHreqvuwcMmvd7FdDzzu6TvOSML6hAKbBXUYJ/xv282ixH7nDJLKs98sIOM7C+XYLnOoHcuhJ/UBfKoeOAawdeRZpqjEoYzwu/3fZAJs0w+qJzujoRbTTnKYgqpeLJCU7qKLu8/2KF5qaEF/qHmjb1TmNddcUdWlXxlKk9K+nH5nfGD6inZXZSpkscP4OPiQ/aKmZU0BC2OXRadtc854sOlTFiI5dKGsNu0TDccZkOXSRf2QIweVFo0YYzO0aoBu3DV1y/zrC8xlFT8Mxx2QpYzbNnIQuqT0Q5t5M+yD8H8vOWjjDhKQ6dwwfIyKhWgAABRoSURBVMOcY8uxz03mI8VPoSdp2oyj3PlBdU2Rgz7/da8jRUdr0dPrShHFD0O7ZoQXWaeFcfz/8ECba8jW6CSu1ZDBeJgvaVFCiBkb7+1CTCaL9h1xccIR/mxe0lTonVxCo93SO7QWGgB6J22X3SmqOyfGooB0aLaUj0IrsNF6MMHoW12IFk71wLxS8dg1lgt78iJvfQsBmdLbMAYscuhJmRZwxS6cPuPMk6s2MAmpnrGwyQTYph9EA/gkLN8uDHQejzjWLAiHKGG6fv/xbMl5SOiEBpbLufnJyQd1Cu3MZZLIt147uGHZOe3L6Xd7tkdlYrY790dnFWhiw3rZ/xaw/HbxI6V5KCaiTE6cp8PBjvIMNzZyxoMtO2UhkkMXymrTPrV7nAFZLl3UDzlyUGltyIXNOEGRFYFop7OKNq6exx2QpcilNnIQeqT0gwVkqfOmaJ8jB5WWcJCAzJ537uV0ocl8pDqm0JM0bcZR7vyguqbIQZ//Vjl5k3xhHSk6zp9/YzVXsQ7jKgUss8LNXsWPhd/bcFY5xzPPoxyIxfF3nbhhUPRIBmQzTUMGOIKxxfws0iC+FV4CZL2cayi9DdlRtBMLrlzVsYpnF+Ka6AXSrEYq5r2JvOwBT+u+n29WYOucmMrvFTJJq346M2HvDNLZHOVhARmmjAgJnEPIvJO8ONulvJQuh56ktWdWwjbzHbNI1X8QgKxNP6gemJeq3QrRxui7dZrAWTa9t/yhdL3Cc849vWDXW+nrQs4+2nw0BjinaN/3e1b+Ke3L6fcYIOOi8Vj/h3W2gAVeDb+z2bDso3cqmh188H4dcVLHg80/ZSGSQxfKatM+9d84A7JcuqgfcuWg0itElmPKa3epod8kA7KUcdtGDkLDlH5oM29SVq4cVF8TDhKQcVZbY63X4jkXkDWZ39uMo9z5QfRMkYM+/61y6iF+YR0pOrJmUF/ou0LOR3OcQ3E9HA6oakPXZEDWprBJSBtqyKgz2gTOC1iHBTFAZl1Y4+zgtNNP7PkDyNmJxZqlaRDdcOO8agDJzE+ADLfbimfPj1k6250rdgTtNzsB9nLba9PwjDZL5QpEWscJoatuC8hYHCo/FrrW5W84+efQk7ytQ5OYdgRHAqr/IABZm35QPVIWvNYrZWjmKdrGQiZze1YB+mJ+iK05JqZc1q36oD2zeSgdwNm+7/es/FLal9PvXHGAExqVp5B6syBmF7HuPp1+gIU2ysMq+eo6B7U9dTwoHWHKQiSHLpTRpn2iY6z/2EDRd7thYNvHszWFGsYZsly6qJ65clDp0abioMSCdtEFU7RepuDjriGL9XvdRlEbOQgtU/qhzbzZRg6qzwkHBciYo8QvbFLaMsLnXEDWZH5vM45y5we1L0UO+vzXua6UQkC0ZHyyLlix4tOKr8RfhOFmq9J5OHqAlgzIZpqGrI5JY4DMTq4Izrq09n2biQXtiAYaXuFsvnrGmx5x2IELTRLtBBguwJU+FqJ1kJaFRYhdmHEfVZimDpARD/W4TB2pp70XLIee5Gk912H2F9YHoCy6DQKQtekH1SNl4WOdp3z22bKufg3bq/+AL5Un01t9I9x+hznV95Af7IXo63xnzS6a2nzss8pLaV9uv1MukxHgyZoAqQ6Y79Ju2mnr2ASwnDf3zIo2aHht+tTxYNOmLERy6dKmfdptDTdLaIN1PjRKQJZLF/VDjhz87rprFdxPyT2N4i+FyFo8znFmEfmucmKhrTsux2Nxwnd2zkAbF34fxH+1JWXctpGD1DmlHywNUjcy28hBS1sLyGJ0UlzrnClmyYLTLNE7ZiKqfAhzAVkoz22eera82HT9orS584PSp8hBn/+aAQf4EwcebBbZM4rwmjxgi/4eNqPpsOmUDMiGXaFR5x/TkMXqFANkOPKQYJ0796xGE2WbicUuEnWuzNYV74K4J6dOuKO333hOmQDDtHaSsVq4Cy44t6ucXoCMfJlQRTfMJlRWDj1Ji3t75Rc7m2YdtQwCkLXpB9UzNqHX7USjWcSlrdJaG3LRLhYyKStNDKhal7nhBG7ThndjxcrSO5WX0r7cfleZhExGhx52QKnV1hhQXQjZOJD30CaAxWrIYp4tU8aDrac9RE0Z9lv4nEuXNu3TZklso8XuVI8SkOXSRfRNkYOcq0B+WHNr8RUyFi+joSWCyomFdhE86YCsjRyENin90GbetLIsVQ6GfaiNSby3ht/038qGGCBbuvSFSi6Hmz3KQ+EwAVmbcWRpmjI/qF0pctDnv3TwwHzIxdCSVXVrBjwHs57DyogfV7Gw+aR+8jCd9ik0SwZkriFb1SExQIZ2RwyPg4RZ68UPRDKpy6yvzcRid5VYoIcHMPHwpfqEC2yYJGUCDJnKupZXGUxOMRPBfoCMemvhR154F6S8HHqSjp1p1emDD97qOEfEBGwXU4MAZG36QfVMASy0EU+bSksbw/N3xMGhCU4teOZnXeJaN/p8g1fRtinPkF84j6Vv3McX423MBrkSQuURKk1K+3L73ZZrn6kX5w6kLVaddLanH2DBJM2afwjI2TJSxoNNZ7XLmFzab+FzLl3atO+tt/5U9iFaH3t9BHILhzCi5SgBWS5dRN8UORieVcRUC1BFHZRfSjidAFkbOQjNUvqhzbzZRg6GfWvPj9qrNGy8OkCGDH3oofurMcQZcSxGbNrweZiArM04yp0f1L4UOUgan/++UTre0DpSdGQTF8Cq/za0wF9rLPudZ9amkukKmT/DeP5/OMAsGZBN945ooyGDNpwzEyOza8bC94fbb13+OLv08MMPluaDOJ4gfpuJhfQ4yVB5eIM76KB9i1123b64+Zbrqvd8DwcuaVMmQOKHP3sJNGUw8YRx+N8PkBHH1hczIOWTSk+ls/bw7AxxOSJ3nlnQQZ1DQAagBFToZ89VsXjSe0J7WXNuP6jvUgALbWTXyl5yzQYAu/OA0RNOPLq89JlFNG0XTeydb7jpRpuJ+R5OTkK33SEg4/yVXXxgAoGGBJMIFqlcL4B5mz1nSbm57cvtd7U1FjLWuFSdtkGbGCCDXmiqMPMAZHBBN3HVDu7qW3+D71Y0teU0HQ82De767QYBjhEAfDgO4RdusuTQxQKy1PZZbTIADODJwi28uHyUgAx65tBF/ZAiBwXImCeQKXW8oLz7hdMJkNHWXDlI2pR+aDNvtpGDYX/iwEqyAfnHJiieWfnJoZAFZJiycpUNdLLymzyQOWH+ufNRKj1Vbu44yp0fVG6qHPT5r3MdKTqydoIPuUKJtSAb0IAve8covFbnOMYBWfc6V7SdijAZkLmGbFWHxTRkdBg7FAJ1EtSxcFCADFW/1S7Fyqpz/JAyAcaYEQBgy0MAxOI1AWQIApl/kKd2nFPpqfIBoLGLgW19eQ4BGf/DOHX/8Vqk8nL7QXmnAjLKZbc05khAeRJaQMYCIQSkNi4eFPU/BGSUxw54P5oyoYsmhMovtX25/W7L7vXMTrS0ihawqL6xkHEWuxBb5TQdD4qvEBPIWHm8C81/cujSpn3WrX9dHXk/akCWQxfRP0UOsvBk3Clt23C6AbJcOQgdU/qhDSBrKwdtn6M9CIGVxgnjjrgWkOmbDVlA4/XR5qvn3PmI9Cn0VHltxlHO/KByCVPkIPF9/ltZepS2NIydabW8xjOb3zaNfQbAhfFDpyE2vj8PFsAlA7Lp3gFyEx/eNxS2mwUIjIvJinbCFIezAOxIyCuiZXB2259+ZnGpxSA+E4sAFTuuykNCHm+NeofGjbyuv2G150W+oamx5kMqj3xjZ6iUH7tScqVfB9oUNxbaxRpOFGhLLJ41naxTlZPungV3VMJAl2TzPoWetvzZszcptSC6i+2TT94rvQ/Ze8gwtbBp0BqJfv1C+tGmzekHJmPKQXNq8+IZkCrtjO7aCePAe4CnFSuWd9UbE72w/9HW2msB1Eb4Hm1XP35AI8Ai0oJn5cE5o6OOPrSjHW3al9vvIY36/Ycn1QYb0kbMM/EEyjgMtVVhvk3HQ5gO+34WZEymGuOqR8xZTypd2rbv3PPO6OpvLskGnPbjT9pqx1TsXsCQHvqfmi6VLiqnrRxUPjmhBWTcF8QZozoasVjiuzUtG5ZTjzbjNkcOQruUfmg7b7aVg7avATH0Y7g5prnOXgfAuEYjjgUH5oqcn7amwDZfnu0YkEyoC8P5KIWettzccUQeqfODLTdVDpLW57+jO+ZbtL/WksXyCpuxWPzUrdOgJ/OQTWPP9Nu+8ufBAjHRMxmQTXcNmQgzqHDTzTYsJ1CEMzbmdfa9gygPNT6LQjRV2v0fRL51eeDyXoOXA8F18Qb5PpeedjGNwxXV+5BD9x94vae6H0Rf+hwzN7xQ9et/vsOTxOUgr/JoGjJ5svCiPBaJ9EvTtDnxcvs9p6zcNJM0HlLbiGdNtB/IlnADKjWvqYg/CfwCHSwgk0yq87Rnr/NQ3GEBskH00ajkYErd28rBlLImMW7uOJrq+QHa+vy3GiRgkrjjTtuVRxjYOJu95aa1175YvmRjWLKF0O8tW01TS6dhPScDsmFVxPOd2o5vS28WZdbTXz8A0La8nPSxhSO7Q+zuS+i4+9fJ4rscPpiKNJMwHqaCDl5G2nhCe4KW0f7wchajI3dh2ng8c8YvFtffpfWD08vp5TzwjY41HfLGaTK14yIZkLmGbGo7aJwGBLteOHJAG2bNM367+JGxG7gnnnRMuXihblx6vMeeOxeYBP3+989UYOyppxaNXb3Hqb+9Lr3H+iSNB+/L3n3p9HH6OA84D8xkHth6zuxqbcSGNQ6MZjI9RtH2ZEA2ikp6meMhKLF1l2ZJId79OKs1bn2EMwTVMRZyrowzGeNWb6/PePB6k36YpPHQpD0eZ3J4z/vK+8p5wHlgkDzABiNnlvlxFGGQeXtezXg1GZC5hqwZYacjA2KXzIFkTGVwkLFw4S/G9sZ3Dm3j8U+H0wXKAJA4MImZM07HPvM2DW+8TtJ4cD4YHh84bZ22zgPOA84DzgNteSAZkLUt0NM70041D+C0gsPJHDKf6rK9POd35wHnAecB5wHnAecB5wHngV488H822fg7Bb9ekdp8e//9Nwp+bfLwtM7EzgPOA84DzgPOA84DzgPOA84DzgPTkQcckK3hjD0dGdvb5HztPOA84DzgPOA84DzgPOA8MAk84IDMAZlrL50HnAecB5wHnAecB5wHnAecB5wHRsQD2YBs4002KC+e4/6pXhfLusmi70xMws6E19H51HnAecB5wHnAecB5wHnAeWAUPJANyPBgJ891hK+99lKx/wF7dSFrB2TO2KNgbC/T+c55wHnAecB5wHnAecB5wHlgEnggG5A9/PCDHYAMUPbll58U685auwOUOSDzgTAJA8Hr6HzqPOA84DzgPOA84DzgPOA8MAoeyAZka3zzP0pTxR122KZ4/fWlFTg79LADHJCNyP50FAzkZbrgch5wHnAecB5wHnAecB5wHnAeyOeBbEBmiX7aaSdUgGzu3LMckDkg6+AByyv+nD9YnXZOO+cB5wHnAecB5wHnAeeB6ccDAwFk++2/ZwXIrrzy0o7FuJssTj+mcUHgfeo84DzgPOA84DzgPOA84DzgPDAYHhgIINtzr10ckLlWrAOI+wAdzAB1OjodnQecB5wHnAecB5wHnAemNw84IHMg5UDKecB5wHnAecB5wHnAecB5wHnAeWBEPDBwQHb33bd1dKabLE5vRO87Nt6/zgPOA84DzgPOA84DzgPOA84D+TwwEEA2Z5vvVyaLy5a97YBsROjaB0L+QHDaOe2cB5wHnAecB5wHnAecB5wHRsEDAwFk63xnzWLlyhUVKDvxpGMqUOYaMmfsUTC2l+l85zzgPOA84DzgPOA84DzgPDAJPDAQQEZDL7jg3OKf/1wNypYv/7B4+eXni7/9bXkBKJsEYngdfdA6DzgPOA84DzgPOA84DzgPOA84D0wlDwwMkHFR9Lx5P6m0ZP/3/64sn//1r68ckLkJowNy5wHnAecB5wHnAecB5wHnAecB54EIDwwMkD3wwIIKjKEp4//lV1xcfPbZBw7IIoSfStTtZfkuj/OA84DzgPOA84DzgPOA84DzwHjywEAA2Xrrf6cCY2jG9t13jwr9+hmy8ex4H5DeL84DzgPOA84DzgPOA84DzgPOA6PngYEAsh123LYCZO++++cKjNHBDshG38k+0LwPnAecB5wHnAecB5wHnAecB5wHxpMHBgLI9txrlwqQ3XzLdQ7I3ESxgwd88I/n4Pd+8X5xHnAecB5wHnAecB5wHhg9DwwckF155aUdi3HXkI2+k32geR84DzgPOA84DzgPOA84DzgPOA+MJw8MBJDtt/+elYbMAdl4drQPQO8X5wHnAecB5wHnAecB5wHnAeeB8eOBgQCyU049vgJkc+ee5RoyN1ns4AEf+OM38L1PvE+cB5wHnAecB5wHnAecB8aDB1oBsjW//V/F1nNmF6+88mIFyA47/MCOxbibLI5HR/uA835wHnAecB5wHnAecB5wHnAecB4YPx7IBmQPPXR/BcJ0CfSKFcuLWeut44DMNWQdPOADf/wGvveJ94nzgPOA84DzgPOA84DzwHjwQDYgW/zEox2A7K23/lQccuj+XQtx15CNR0f7gPN+cB5wHnAecB5wHnAecB5wHnAeGD8eyAZks2dvUuy1967FNtv+oNhwo1ldQEyd7YBs/DpdfeOh943zgPOA84DzgPOA84DzgPOA88BoeSAbkDXtOAdko+3gpv3k8byfnAecB5wHnAecB5wHnAecB5wHpp4HHJD5ea9a7aYPyKkfkE5zp7nzgPOA84DzgPOA84DzwMziAQdkDsgckDkPOA84DzgPOA84DzgPOA84DzgPjIgH/k8qAr///gVFzi+1HI8/s3YGvL+9v50HnAecB5wHnAecB5wHnAdmIg84IBsREp6JzOZtdiHrPOA84DzgPOA84DzgPOA84DzQyQP/D069Tl6ZZie7AAAAAElFTkSuQmCC;" parent="1" vertex="1">
          <mxGeometry x="-30" y="380" width="328" height="124.7" as="geometry" />
        </mxCell>
        <mxCell id="ceImJN7lgpzEA01INMW1-5" value="Cache" style="rounded=1;whiteSpace=wrap;html=1;fillColor=#FFB570;" parent="1" vertex="1">
          <mxGeometry x="210" y="190" width="70" height="40" as="geometry" />
        </mxCell>
        <mxCell id="ceImJN7lgpzEA01INMW1-7" value="Cache" style="rounded=1;whiteSpace=wrap;html=1;fillColor=#FFB570;" parent="1" vertex="1">
          <mxGeometry x="510" y="190" width="70" height="40" as="geometry" />
        </mxCell>
        <mxCell id="ceImJN7lgpzEA01INMW1-8" value="Cache" style="rounded=1;whiteSpace=wrap;html=1;fillColor=#FFB570;" parent="1" vertex="1">
          <mxGeometry x="413.5" y="190" width="70" height="40" as="geometry" />
        </mxCell>
        <mxCell id="ceImJN7lgpzEA01INMW1-9" value="Cache" style="rounded=1;whiteSpace=wrap;html=1;fillColor=#FFB570;" parent="1" vertex="1">
          <mxGeometry x="310" y="190" width="70" height="40" as="geometry" />
        </mxCell>
        <mxCell id="ceImJN7lgpzEA01INMW1-10" value="Arean1" style="rounded=1;whiteSpace=wrap;html=1;" parent="1" vertex="1">
          <mxGeometry x="210" y="260" width="70" height="40" as="geometry" />
        </mxCell>
        <mxCell id="ceImJN7lgpzEA01INMW1-11" value="Arean4" style="rounded=1;whiteSpace=wrap;html=1;" parent="1" vertex="1">
          <mxGeometry x="510" y="260" width="70" height="40" as="geometry" />
        </mxCell>
        <mxCell id="ceImJN7lgpzEA01INMW1-12" value="Arean3" style="rounded=1;whiteSpace=wrap;html=1;" parent="1" vertex="1">
          <mxGeometry x="414" y="260" width="70" height="40" as="geometry" />
        </mxCell>
        <mxCell id="ceImJN7lgpzEA01INMW1-13" value="Arean2" style="rounded=1;whiteSpace=wrap;html=1;" parent="1" vertex="1">
          <mxGeometry x="310" y="260" width="70" height="40" as="geometry" />
        </mxCell>
        <mxCell id="ceImJN7lgpzEA01INMW1-14" value="&lt;font style=&quot;font-size: 18px&quot;&gt;...&lt;/font&gt;" style="text;html=1;strokeColor=none;fillColor=none;align=center;verticalAlign=middle;whiteSpace=wrap;rounded=0;" parent="1" vertex="1">
          <mxGeometry x="600" y="200" width="40" height="20" as="geometry" />
        </mxCell>
        <mxCell id="ceImJN7lgpzEA01INMW1-15" value="&lt;font style=&quot;font-size: 18px&quot;&gt;...&lt;/font&gt;" style="text;html=1;strokeColor=none;fillColor=none;align=center;verticalAlign=middle;whiteSpace=wrap;rounded=0;" parent="1" vertex="1">
          <mxGeometry x="600" y="90" width="40" height="20" as="geometry" />
        </mxCell>
        <mxCell id="ceImJN7lgpzEA01INMW1-16" value="&lt;font style=&quot;font-size: 18px&quot;&gt;...&lt;/font&gt;" style="text;html=1;strokeColor=none;fillColor=none;align=center;verticalAlign=middle;whiteSpace=wrap;rounded=0;" parent="1" vertex="1">
          <mxGeometry x="600" y="270" width="40" height="20" as="geometry" />
        </mxCell>
        <mxCell id="ceImJN7lgpzEA01INMW1-18" value="EventLoop1" style="rounded=1;whiteSpace=wrap;html=1;fillColor=#97D077;" parent="1" vertex="1">
          <mxGeometry x="210" y="80" width="70" height="40" as="geometry" />
        </mxCell>
        <mxCell id="ceImJN7lgpzEA01INMW1-19" value="EventLoop2" style="rounded=1;whiteSpace=wrap;html=1;fillColor=#97D077;" parent="1" vertex="1">
          <mxGeometry x="310" y="80" width="70" height="40" as="geometry" />
        </mxCell>
        <mxCell id="ceImJN7lgpzEA01INMW1-20" value="EventLoop3" style="rounded=1;whiteSpace=wrap;html=1;fillColor=#97D077;" parent="1" vertex="1">
          <mxGeometry x="414" y="80" width="70" height="40" as="geometry" />
        </mxCell>
        <mxCell id="ceImJN7lgpzEA01INMW1-21" value="EventLoop4" style="rounded=1;whiteSpace=wrap;html=1;fillColor=#97D077;" parent="1" vertex="1">
          <mxGeometry x="510" y="80" width="70" height="40" as="geometry" />
        </mxCell>
        <mxCell id="ceImJN7lgpzEA01INMW1-22" value="" style="endArrow=classic;startArrow=classic;html=1;entryX=0.5;entryY=1;entryDx=0;entryDy=0;" parent="1" target="ceImJN7lgpzEA01INMW1-18" edge="1">
          <mxGeometry width="50" height="50" relative="1" as="geometry">
            <mxPoint x="245" y="170" as="sourcePoint" />
            <mxPoint x="380" y="240" as="targetPoint" />
          </mxGeometry>
        </mxCell>
        <mxCell id="ceImJN7lgpzEA01INMW1-24" value="" style="endArrow=classic;startArrow=classic;html=1;entryX=0.5;entryY=1;entryDx=0;entryDy=0;" parent="1" edge="1">
          <mxGeometry width="50" height="50" relative="1" as="geometry">
            <mxPoint x="345" y="170" as="sourcePoint" />
            <mxPoint x="344.67" y="120" as="targetPoint" />
          </mxGeometry>
        </mxCell>
        <mxCell id="ceImJN7lgpzEA01INMW1-25" value="" style="endArrow=classic;startArrow=classic;html=1;entryX=0.5;entryY=1;entryDx=0;entryDy=0;" parent="1" edge="1">
          <mxGeometry width="50" height="50" relative="1" as="geometry">
            <mxPoint x="448" y="170" as="sourcePoint" />
            <mxPoint x="448.16999999999996" y="120" as="targetPoint" />
          </mxGeometry>
        </mxCell>
        <mxCell id="ceImJN7lgpzEA01INMW1-26" value="" style="endArrow=classic;startArrow=classic;html=1;entryX=0.5;entryY=1;entryDx=0;entryDy=0;" parent="1" edge="1">
          <mxGeometry width="50" height="50" relative="1" as="geometry">
            <mxPoint x="545" y="170" as="sourcePoint" />
            <mxPoint x="544.6700000000001" y="120" as="targetPoint" />
          </mxGeometry>
        </mxCell>
        <mxCell id="ceImJN7lgpzEA01INMW1-27" value="PoolThreadCache" style="text;html=1;strokeColor=none;fillColor=none;align=center;verticalAlign=middle;whiteSpace=wrap;rounded=0;fontSize=16;" parent="1" vertex="1">
          <mxGeometry x="330" y="320" width="140" height="30" as="geometry" />
        </mxCell>
        <mxCell id="kj3QrBDqhi7sIl1en-mR-3" value="MemoryRegionCache[]" style="text;html=1;strokeColor=none;fillColor=none;align=center;verticalAlign=middle;whiteSpace=wrap;rounded=0;" vertex="1" parent="1">
          <mxGeometry x="233" y="167" width="40" height="20" as="geometry" />
        </mxCell>
        <mxCell id="kj3QrBDqhi7sIl1en-mR-7" style="edgeStyle=orthogonalEdgeStyle;rounded=0;orthogonalLoop=1;jettySize=auto;html=1;entryX=0.5;entryY=0;entryDx=0;entryDy=0;" edge="1" parent="1">
          <mxGeometry relative="1" as="geometry">
            <mxPoint x="344.63" y="240" as="sourcePoint" />
            <mxPoint x="344.6300000000002" y="260" as="targetPoint" />
            <Array as="points">
              <mxPoint x="344.63" y="240" />
            </Array>
          </mxGeometry>
        </mxCell>
        <mxCell id="kj3QrBDqhi7sIl1en-mR-8" style="edgeStyle=orthogonalEdgeStyle;rounded=0;orthogonalLoop=1;jettySize=auto;html=1;entryX=0.5;entryY=0;entryDx=0;entryDy=0;" edge="1" parent="1">
          <mxGeometry relative="1" as="geometry">
            <mxPoint x="448.6300000000001" y="240" as="sourcePoint" />
            <mxPoint x="448.6300000000001" y="260" as="targetPoint" />
            <Array as="points">
              <mxPoint x="448.63" y="240" />
            </Array>
          </mxGeometry>
        </mxCell>
        <mxCell id="kj3QrBDqhi7sIl1en-mR-9" style="edgeStyle=orthogonalEdgeStyle;rounded=0;orthogonalLoop=1;jettySize=auto;html=1;entryX=0.5;entryY=0;entryDx=0;entryDy=0;" edge="1" parent="1">
          <mxGeometry relative="1" as="geometry">
            <mxPoint x="544.6300000000001" y="240" as="sourcePoint" />
            <mxPoint x="544.6300000000001" y="260" as="targetPoint" />
            <Array as="points">
              <mxPoint x="544.63" y="240" />
            </Array>
          </mxGeometry>
        </mxCell>
      </root>
    </mxGraphModel>
  </diagram>
</mxfile>
